DBRep_DrawableShape

CASCADE Topology V1, (c) Matra-Datavision
Locations 16
1
              1               0               0               0 
              0               1               0               0 
              0               0               1               0 
1
              1               0               0               0 
              0               1               0               0 
              0               0               1               0 
2  2 -1 0
1
              1               0               0               0 
              0               1               0               0 
              0               0               1               0 
1
              1               0               0               0 
              0               0              -1               0 
              0               1               0               0 
1
              1               0               0               0 
              0               1               0               0 
              0               0               1               0 
2  4 1 5 1 6 -1 0
2  2 -1 6 1 5 -1 4 -1 0
1
              1               0               0               0 
              0               1               0            -100 
              0               0               1         2.2e-14 
2  4 1 5 1 6 -1 9 1 0
2  2 -1 9 -1 6 1 5 -1 4 -1 0
2  6 -1 0
2  4 1 5 1 0
2  6 1 5 -1 4 -1 0
2  9 -1 6 1 5 -1 4 -1 0
2  6 -1 9 1 0
Curve2ds 12
1 0 0 1 0 
1 0 0 1 0 
1 0 0 1 0 
1 1.5419276188615443 0 0 -1 
1 2.2581616693739996 0 0 -1 
1 0 -100 1 0 
1 4.0455163604897937 0 0 -1 
1 5.3891752115469727 0 0 -1 
1 0 -100 1 0 
1 0.8797485174773827 0 0 -1 
1 1.5707963267948959 0 0 -1 
1 0 -100 1 0 
Curves 48
1 29.999402 -1.394e-14 -62.799999999999997 0 -1 2.2e-16 
1 6.0072410000000005 -1.394e-14 -62.799999999999997 0 -1 2.2e-16 
1 29.999402 -62.799999999999997 0 -1 0 0 
1 29.999402 -62.799999999999997 0 -1 0 0 
1 29.999401999999996 -1.7719999999999999e-14 -79.799999999999997 0 -1 2.2e-16 
1 29.999402 -62.799999999999997 0 0 -1 0 
1 29.999402 -62.799999999999997 0 0 -1 0 
1 -5.9927590000000013 -1.394e-14 -62.799999999999997 0 -1 2.2e-16 
1 -30.000598000000004 -1.394e-14 -62.799999999999997 0 -1 2.2e-16 
1 -5.9927590000000013 -62.799999999999997 0 -1 0 0 
1 -5.9927590000000013 -62.799999999999997 0 -1 0 0 
1 -30.000598000000004 -1.7719999999999999e-14 -79.799999999999997 0 -1 2.2e-16 
1 -30.000598000000004 -62.799999999999997 0 0 -1 0 
1 -30.000598000000004 -62.799999999999997 0 0 -1 0 
1 -30.000598000000004 -79.799999999999997 0 1 0 0 
1 -30.000598000000004 -79.799999999999997 0 1 0 0 
1 6.0072410000000005 -2.6e-15 -11.686954999999999 -8.0000000000000006e-17 2.2e-16 1 
1 6.0072409999999996 -0.201242 0 -0.69404438016903469 0.71993221788983752 0 
1 5.8072410000000003 0.0062179949111309503 0 -1 0 0 
2 4.9956951207096587 -0.39361533620498906 0 0 0 1 1 0 -0 -0 1 0 0.40000000000000002
1 0.22864000000000001 -1.03e-15 -4.6479470372406544 -0.70318169535435315 -1.6000000000000001e-16 -0.71101019916635355 
2 -0.085950155102639036 -4.4008983895768177 0 0 0 1 1 0 -0 -0 1 0 0.40000000000000002
1 -0.33336281349158348 -4.7152023451181302 0 -0.68603638370558551 0.72756723416613722 0 
2 -4.99013948284205 -0.35511929038329865 0 0 0 1 1 0 -0 -0 1 0 0.40000000000000002
1 -5.7901394828420498 0.044880709616701382 0 1 0 0 
1 -5.7901394828420498 0.044880709616701382 0 -0.63557682775323221 -0.77203762604107473 0 
1 -5.9927590000000013 -2.6e-15 -11.686954999999999 0 -2.2e-16 -1 
1 6.0072409999999996 -4.0000000000000003e-17 -0.20124200000000031 0 -1 2.2e-16 
1 5.8072410000000003 0 0.0062179949111309503 0 -1 2.2e-16 
1 6.0072409999999996 -0.201242 0 -0.69404438016903469 0.71993221788983752 0 
1 5.0072410000000005 0 0.0062179949111309503 0 -1 2.2e-16 
1 5.8072410000000003 0.0062179949111309503 0 -1 0 0 
1 4.7418939181890947 -2.0000000000000001e-17 -0.08444717872573726 0 -1 2.2e-16 
2 4.9956951207096587 -0.39361533620498906 0 0 0 1 1 0 -0 -0 1 0 0.40000000000000002
1 -0.33336281349158348 -1.0499999999999999e-15 -4.7152023451181302 0 -1 2.2e-16 
1 0.16456618176361409 -1.0499999999999999e-15 -4.7127341876550917 0 -1 2.2e-16 
2 -0.085950155102639036 -4.4008983895768177 0 0 0 1 1 0 -0 -0 1 0 0.40000000000000002
1 -4.7352015022795459 -1.0000000000000001e-17 -0.046887841522686297 0 -1 2.2e-16 
1 -0.33336281349158348 -4.7152023451181302 0 -0.68603638370558551 0.72756723416613722 0 
1 -4.99013948284205 1.0000000000000001e-17 0.044880709616701382 0 -1 2.2e-16 
2 -4.99013948284205 -0.35511929038329865 0 0 0 1 1 0 -0 -0 1 0 0.40000000000000002
1 -5.7901394828420498 1.0000000000000001e-17 0.044880709616701382 0 -1 2.2e-16 
1 -5.7901394828420498 0.044880709616701382 0 1 0 0 
1 -5.9927590000000004 -4.0000000000000003e-17 -0.20124199999999998 0 -1 2.2e-16 
1 -5.7901394828420498 0.044880709616701382 0 -0.63557682775323221 -0.77203762604107473 0 
1 6.0072410000000005 -100 -11.686954999999976 0 -2.2e-16 -1 
1 0.22864000000000001 -100 -4.6479470372406322 0.70318169535436237 1.6000000000000001e-16 0.71101019916634445 
1 -5.9927590000000004 -100 -0.2012419999999778 -8.0000000000000006e-17 -2.2e-16 -1 
Polygon3D 0
PolygonOnTriangulations 0
Surfaces 18
1 29.999402 -1.394e-14 -62.799999999999997 -0 -2.2e-16 -1 -1 0 0 0 1 -2.2e-16 
1 29.999402 -1.394e-14 -62.799999999999997 1 0 0 0 -2.2e-16 -1 0 1 -2.2e-16 
1 -5.9927590000000013 -1.394e-14 -62.799999999999997 -0 -2.2e-16 -1 -1 0 0 0 1 -2.2e-16 
1 -30.000598000000004 -1.394e-14 -62.799999999999997 1 0 0 0 -2.2e-16 -1 0 1 -2.2e-16 
1 -30.000598000000004 -1.7719999999999999e-14 -79.799999999999997 0 2.2e-16 1 1 0 -0 -0 1 -2.2e-16 
1 0.00099092928898594996 -1.1130000000000001e-14 -50.115031664796135 0 1 0 0 -0 1 1 0 -0 
2 4.9956951207096587 -8.9999999999999996e-17 -0.39361533620498906 0 1 -2.2e-16 1 0 0 -0 2.2e-16 1 0.40000000000000002
2 -0.085950155102639036 -9.7999999999999995e-16 -4.4008983895768177 0 1 -2.2e-16 1 0 0 -0 2.2e-16 1 0.40000000000000002
2 -4.99013948284205 -8.0000000000000006e-17 -0.35511929038329865 0 1 -2.2e-16 1 0 0 -0 2.2e-16 1 0.40000000000000002
1 6.0072409999999996 -4.0000000000000003e-17 -0.201242 -0.71993221788983752 -1.5e-16 -0.69404438016903469 -0.69404438016903469 1.5999999999999999e-16 0.71993221788983752 3.0572681435699269e-18 1 -2.1929581188772921e-16 
1 5.8072410000000003 0 0.0062179949111309503 -0 -2.2e-16 -1 -1 0 0 0 1 -2.2e-16 
1 -0.33336281349158348 -1.0499999999999999e-15 -4.7152023451181302 -0.72756723416613722 -1.5e-16 -0.68603638370558551 -0.68603638370558551 1.6000000000000001e-16 0.72756723416613722 6.3073626797311139e-19 1 -2.1931621502241975e-16 
1 -5.7901394828420498 1.0000000000000001e-17 0.044880709616701382 0 2.2e-16 1 1 0 -0 -0 1 -2.2e-16 
1 -5.7901394828420498 1.0000000000000001e-17 0.044880709616701382 0.77203762604107473 -1.4000000000000001e-16 -0.63557682775323221 -0.63557682775323221 -1.6999999999999998e-16 -0.77203762604107473 3.7206927701005626e-20 1 -2.2022715231243516e-16 
1 0.00099092928898594996 -1.1130000000000001e-14 -50.115031664796135 0 1 0 0 -0 1 1 0 -0 
1 6.0072409999999978 -50 -31.500620999999974 1 0 0 0 0 1 0 -1 0 
1 2.4532300499763542 -50.000000000000014 -2.3985906831904034 -0.71101019916634445 1.6000000000000001e-16 0.70318169535436237 -0.70318169535436237 -1.2325951644078309e-32 -0.71101019916634445 -1.1376163186661512e-16 -1 1.1250907125669799e-16 
1 -5.9927589999999995 -50 -31.500620999999981 -1 -0 -0 0 0 -1 0 -1 0 
Triangulations 0

TShapes 118
Ve
1e-07
29.999402 -1.4e-14 -62.8
0 0

0101101
*
Ve
1e-07
29.999402 -100 -62.8
0 0

0101101
*
Ed
 1e-07 1 1 0
1  1 0 0 100
0

0101000
+118 3 -117 3 *
Ve
1e-07
6.007241 -1.4e-14 -62.8
0 0

0101101
*
Ve
1e-07
6.007241 -100 -62.8
0 0

0101101
*
Ed
 1e-07 1 1 0
1  2 0 0 100
0

0101000
+115 3 -114 3 *
Ed
 1e-07 1 1 0
1  3 0 0 23.992161
0

0101000
+118 8 -115 8 *
Ed
 1e-07 1 1 0
1  4 0 0 23.992161
0

0101000
+117 11 -114 11 *
Wi

0101100
+116 0 -113 0 -112 7 +111 10 *
Fa
0  1e-07 1 0

0101000
+110 0 *
Ve
1.00000002e-07
29.999402 -1.8e-14 -79.8
0 0

0101101
*
Ve
1.00000002e-07
29.999402 -100 -79.8
0 0

0101101
*
Ed
 1.00000002e-07 1 1 0
1  5 0 0 100
0

0101000
+108 3 -107 3 *
Ed
 1e-07 1 1 0
1  6 0 0 17
0

0101000
+118 8 -108 8 *
Ed
 1e-07 1 1 0
1  7 0 0 17
0

0101000
+117 11 -107 11 *
Wi

0101100
+116 0 -106 0 -105 7 +104 10 *
Fa
0  1e-07 2 0

0101000
+103 0 *
Ve
1e-07
-5.992759 -1.4e-14 -62.8
0 0

0101101
*
Ve
1e-07
-5.992759 -100 -62.8
0 0

0101101
*
Ed
 1e-07 1 1 0
1  8 0 0 100
0

0101000
+101 3 -100 3 *
Ve
1e-07
-30.000598 -1.4e-14 -62.8
0 0

0101101
*
Ve
1e-07
-30.000598 -100 -62.8
0 0

0101101
*
Ed
 1e-07 1 1 0
1  9 0 0 100
0

0101000
+98 3 -97 3 *
Ed
 1e-07 1 1 0
1  10 0 0 24.007839
0

0101000
+101 8 -98 8 *
Ed
 1e-07 1 1 0
1  11 0 0 24.007839
0

0101000
+100 11 -97 11 *
Wi

0101100
+99 0 -96 0 -95 7 +94 10 *
Fa
0  1e-07 3 0

0101000
+93 0 *
Ve
1e-07
-30.000598 -1.8e-14 -79.8
0 0

0101101
*
Ve
1e-07
-30.000598 -100 -79.8
0 0

0101101
*
Ed
 1e-07 1 1 0
1  12 0 0 100
0

0101000
+91 3 -90 3 *
Ed
 1e-07 1 1 0
1  13 0 0 17
0

0101000
+98 8 -91 8 *
Ed
 1e-07 1 1 0
1  14 0 0 17
0

0101000
+97 11 -90 11 *
Wi

0101100
+96 0 -89 0 -88 7 +87 10 *
Fa
0  1e-07 4 0

0101000
+86 0 *
Ed
 1e-07 1 1 0
1  15 0 0 60
0

0101000
+91 8 -108 8 *
Ed
 1e-07 1 1 0
1  16 0 0 60
0

0101000
+90 11 -107 11 *
Wi

0101100
+89 0 -106 0 -84 7 +83 10 *
Fa
0  1e-07 5 0

0101000
+82 0 *
Ve
1e-07
6.007241 -0 -0.201242
0 0

0101101
*
Ed
 1e-07 1 1 0
1  17 0 -51.113045 11.485713
0

0101000
+115 3 -80 3 *
Ve
1e-07
5.807241 0 0.006217994911131
0 0

0101101
*
Ed
 1e-07 1 1 0
1  18 0 0 0.288166010293591
0

0101000
+80 8 -78 8 *
Ve
1e-07
5.007241 0 0.006217994911131
0 0

0101101
*
Ed
 1e-07 1 1 0
1  19 0 0 0.8
0

0101000
+78 8 -76 8 *
Ve
1e-07
4.74189391818909 -0 -0.084447178725737
0 0

0101101
*
Ed
 1e-07 1 1 0
1  20 0 1.54192761886154 2.258161669374
2  1 7 14 1.54192761886154 2.258161669374
0

0101000
+76 8 -74 8 *
Ve
1e-07
0.164566181763614 -1e-15 -4.71273418765509
0 0

0101101
*
Ed
 1e-07 1 1 0
1  21 0 -6.4183324850552 0.091119860854878
0

0101000
+74 3 -72 3 *
Ve
1e-07
-0.333362813491583 -1e-15 -4.71520234511813
0 0

0101101
*
Ed
 1e-07 1 1 0
1  22 0 4.04551636048979 5.38917521154697
2  2 8 14 4.04551636048979 5.38917521154697
0

0101000
+70 8 -72 8 *
Ve
1e-07
-4.73520150227955 -0 -0.046887841522686
0 0

0101101
*
Ed
 1e-07 1 1 0
1  23 0 0 6.41633416731003
0

0101000
+70 8 -68 8 *
Ve
1e-07
-4.99013948284205 0 0.044880709616701
0 0

0101101
*
Ed
 1e-07 1 1 0
1  24 0 0.879748517477383 1.5707963267949
2  3 9 14 0.879748517477383 1.5707963267949
0

0101000
+68 8 -66 8 *
Ve
1e-07
-5.79013948284205 0 0.044880709616701
0 0

0101101
*
Ed
 1e-07 1 1 0
1  25 0 0 0.8
0

0101000
+64 8 -66 8 *
Ve
1e-07
-5.992759 -0 -0.201242
0 0

0101101
*
Ed
 1e-07 1 1 0
1  26 0 0 0.318796262403417
0

0101000
+64 8 -62 8 *
Ed
 1e-07 1 1 0
1  27 0 -11.485713 51.113045
0

0101000
+62 3 -101 3 *
Wi

0101000
+112 0 +79 14 +77 0 +75 0 +73 0 +71 14 -69 0 +67 0 +65 0 -63 0 
+61 0 +60 14 +95 0 +88 0 +84 0 -105 0 *
Fa
0  1e-07 6 0

0101000
-59 13 *
Ve
1e-07
6.007241 -100 -0.201241999999978
0 0

0101101
*
Ed
 1e-07 1 1 0
1  28 0 0 100
0

0101000
+80 3 -57 3 *
Ve
1e-07
5.807241 -100 0.006217994911153
0 0

0101101
*
Ed
 1e-07 1 1 0
1  29 0 0 100
0

0101000
+78 3 -55 3 *
Ed
 1e-07 1 1 0
1  30 0 0 0.288166010293591
0

0101000
+57 11 -55 11 *
Wi

0101100
+56 0 -54 0 -77 7 +53 10 *
Fa
0  1e-07 10 0

0101000
+52 0 *
Ve
1e-07
5.007241 -100 0.006217994911153
0 0

0101101
*
Ed
 1e-07 1 1 0
1  31 0 0 100
2  4 7 0 0 100
0

0101000
+76 3 -50 3 *
Ed
 1e-07 1 1 0
1  32 0 0 0.8
0

0101000
+55 11 -50 11 *
Wi

0101100
+54 0 -49 0 -75 7 +48 10 *
Fa
0  1e-07 11 0

0101000
+47 0 *
Ve
1e-07
4.74189391818909 -100 -0.084447178725715
0 0

0101101
*
Ed
 1e-07 1 1 0
1  33 0 0 100
2  5 7 0 0 100
0

0101000
+74 3 -45 3 *
Ed
 1e-07 1 1 0
1  34 0 1.54192761886154 2.258161669374
2  6 7 15 1.54192761886154 2.258161669374
0

0101000
+50 11 -45 11 *
Wi

0101100
+49 0 -44 0 -73 7 +43 10 *
Fa
0  1e-07 7 0

0101000
+42 0 *
Ve
1e-07
-0.333362813491583 -100 -4.71520234511811
0 0

0101101
*
Ed
 1e-07 1 1 0
1  35 0 0 100
2  7 8 0 0 100
0

0101000
+70 3 -40 3 *
Ve
1e-07
0.164566181763614 -100 -4.71273418765507
0 0

0101101
*
Ed
 1e-07 1 1 0
1  36 0 0 100
2  8 8 0 0 100
0

0101000
+72 3 -38 3 *
Ed
 1e-07 1 1 0
1  37 0 4.04551636048979 5.38917521154697
2  9 8 15 4.04551636048979 5.38917521154697
0

0101000
+40 11 -38 11 *
Wi

0101100
+39 0 -37 0 -69 7 +36 10 *
Fa
0  1e-07 8 0

0101000
+35 0 *
Ve
1e-07
-4.73520150227955 -100 -0.046887841522664
0 0

0101101
*
Ed
 1e-07 1 1 0
1  38 0 0 100
2  10 9 0 0 100
0

0101000
+68 3 -33 3 *
Ed
 1e-07 1 1 0
1  39 0 0 6.41633416731003
0

0101000
+40 11 -33 11 *
Wi

0101100
+39 0 -32 0 -67 7 +31 10 *
Fa
0  1e-07 12 0

0101000
+30 0 *
Ve
1e-07
-4.99013948284205 -100 0.044880709616724
0 0

0101101
*
Ed
 1e-07 1 1 0
1  40 0 0 100
2  11 9 0 0 100
4 G1 9 0 13 0
0

0101000
+66 3 -28 3 *
Ed
 1e-07 1 1 0
1  41 0 0.879748517477383 1.5707963267949
2  12 9 15 0.879748517477383 1.5707963267949
0

0101000
+33 11 -28 11 *
Wi

0101100
+32 0 -27 0 -65 7 +26 10 *
Fa
0  1e-07 9 0

0101000
+25 0 *
Ve
1e-07
-5.79013948284205 -100 0.044880709616724
0 0

0101101
*
Ed
 1e-07 1 1 0
1  42 0 0 100
0

0101000
+64 3 -23 3 *
Ed
 1e-07 1 1 0
1  43 0 0 0.8
0

0101000
+23 11 -28 11 *
Wi

0101100
+22 0 -27 0 -63 7 +21 10 *
Fa
0  1e-07 13 0

0101000
+20 0 *
Ve
1e-07
-5.992759 -100 -0.201241999999978
0 0

0101101
*
Ed
 1e-07 1 1 0
1  44 0 0 100
0

0101000
+62 3 -18 3 *
Ed
 1e-07 1 1 0
1  45 0 0 0.318796262403417
0

0101000
+23 11 -18 11 *
Wi

0101100
+22 0 -17 0 -61 7 +16 10 *
Fa
0  1e-07 14 0

0101000
+15 0 *
Ed
 1e-07 1 1 0
1  46 0 -11.485713 51.113045
0

0101000
+57 3 -114 3 *
Ed
 1e-07 1 1 0
1  47 0 -0.091119860854878 6.4183324850552
0

0101000
+38 3 -45 3 *
Ed
 1e-07 1 1 0
1  48 0 -0 62.598758
0

0101000
+18 3 -100 3 *
Wi

0101000
+111 0 -13 15 +53 0 +48 0 +43 0 -12 15 -36 0 +31 0 +26 0 -21 0 
+16 0 +11 15 +94 0 +87 0 +83 0 -104 0 *
Fa
0  1e-07 15 0

0101000
-10 13 *
Wi

0101000
-113 0 +79 0 +56 0 +13 0 *
Fa
0  1e-07 16 0

0101000
+8 0 *
Wi

0101000
-44 0 +71 0 +37 0 +12 0 *
Fa
0  1e-07 17 0

0101000
+6 0 *
Wi

0101000
-17 0 +60 0 +99 0 -11 0 *
Fa
0  1e-07 18 0

0101000
+4 0 *
Sh

0101000
-109 0 +102 0 -92 0 -85 0 -81 0 +58 12 -51 0 -46 0 -41 0 +34 0 
-29 0 -24 0 +19 0 -14 0 -9 16 +7 0 +5 0 +3 0 *
So

1100000
+2 0 *

+1 1 