DBRep_DrawableShape

CASCADE Topology V1, (c) Matra-Datavision
Locations 75
1
              1               0               0               0 
              0               1               0               0 
              0               0               1               0 
1
7.32747196252603e-15 -1.19209289439759e-07 -0.999999999999993 184.66437068741 
-0.999999999999993 -1.19209289439759e-07 6.88338272620629e-15 2417.26338191788 
-1.19209289439759e-07 0.999999999999986 -1.19209289439759e-07 -2232.59906856246 
1
              1               0               0               0 
              0               1               0               0 
              0               0               1               0 
2  3 -1 0
1
              1               0               0               0 
              0               1               0               0 
              0               0               1               0 
1
              1               0               0               0 
              0               1               0               0 
              0               0               1               0 
1
              1               0               0               0 
              0               1               0               0 
              0               0               1               0 
2  5 1 6 1 7 -1 0
2  3 -1 7 1 6 -1 5 -1 0
1
              1               0               0               0 
              0               1               0               0 
              0               0               1              50 
2  5 1 6 1 7 -1 10 1 0
2  3 -1 10 -1 7 1 6 -1 5 -1 0
2  7 1 6 -1 5 -1 0
2  10 -1 7 1 6 -1 5 -1 0
2  7 -1 0
2  5 1 6 1 0
2  7 -1 10 1 0
1
7.32747196252603e-15 -1.19209289439759e-07 -0.999999999999993 2184.6643706874 
-0.999999999999993 -1.19209289439759e-07 6.88338272620629e-15 2417.26338191786 
-1.19209289439759e-07 0.999999999999986 -1.19209289439759e-07 -2232.59883014388 
1
              1               0               0               0 
              0               1               0               0 
              0               0               1               0 
2  19 -1 0
1
              1               0               0               0 
              0               1               0               0 
              0               0               1               0 
1
              1               0               0               0 
              0               1               0               0 
              0               0               1               0 
1
              1               0               0               0 
              0               1               0               0 
              0               0               1               0 
2  21 1 22 1 23 -1 0
2  19 -1 23 1 22 -1 21 -1 0
1
              1               0               0               0 
              0               1               0               0 
              0               0               1              50 
2  21 1 22 1 23 -1 26 1 0
2  19 -1 26 -1 23 1 22 -1 21 -1 0
2  23 1 22 -1 21 -1 0
2  26 -1 23 1 22 -1 21 -1 0
2  23 -1 0
2  21 1 22 1 0
2  23 -1 26 1 0
1
7.32747196252603e-15 -1.19209289439759e-07 -0.999999999999993 184.66437068742 
-0.999999999999993 -1.19209289439759e-07 6.88338272620629e-15 997.263381917889 
-1.19209289439759e-07 0.999999999999986 -1.19209289439759e-07 -2232.59923783965 
1
              1               0               0               0 
              0               1               0               0 
              0               0               1               0 
2  35 -1 0
1
              1               0               0               0 
              0               1               0               0 
              0               0               1               0 
1
              0               0               1               0 
              1               0               0               0 
              0               1               0               0 
1
              1               0               0               0 
              0               1               0               0 
              0               0               1               0 
2  37 1 38 1 39 -1 0
2  35 -1 39 1 38 -1 37 -1 0
1
              1               0               0              80 
              0               1               0               0 
              0               0               1               0 
2  37 1 38 1 39 -1 42 1 0
2  35 -1 42 -1 39 1 38 -1 37 -1 0
2  39 -1 0
2  37 1 38 1 0
2  39 -1 42 1 0
1
7.32747196252603e-15 -1.19209289439759e-07 -0.999999999999993 184.66437068742 
-0.999999999999993 -1.19209289439759e-07 6.88338272620629e-15 1061.26338191789 
-1.19209289439759e-07 0.999999999999986 -1.19209289439759e-07 -2232.59923021025 
1
              1               0               0               0 
              0               1               0               0 
              0               0               1               0 
2  49 -1 0
1
              1               0               0               0 
              0               1               0               0 
              0               0               1               0 
1
              0               0               1               0 
              1               0               0               0 
              0               1               0               0 
1
              1               0               0               0 
              0               1               0               0 
              0               0               1               0 
2  51 1 52 1 53 -1 0
2  49 -1 53 1 52 -1 51 -1 0
1
              1               0               0              60 
              0               1               0               0 
              0               0               1               0 
2  51 1 52 1 53 -1 56 1 0
2  49 -1 56 -1 53 1 52 -1 51 -1 0
2  53 -1 0
2  51 1 52 1 0
2  53 -1 56 1 0
1
7.32747196252603e-15 -1.19209289439759e-07 -0.999999999999993 184.664423139508 
-0.999999999999993 -1.19209289439759e-07 6.88338272620629e-15 977.263434369977 
-1.19209289439759e-07 0.999999999999986 -1.19209289439759e-07 -2672.59924022383 
1
              1               0               0               0 
              0               1               0               0 
              0               0               1               0 
2  63 -1 0
1
              1               0               0               0 
              0               1               0               0 
              0               0               1               0 
1
              0               0               1               0 
              1               0               0               0 
              0               1               0               0 
1
              1               0               0               0 
              0               1               0               0 
              0               0               1               0 
2  65 1 66 1 67 -1 0
2  63 -1 67 1 66 -1 65 -1 0
1
              1               0               0              60 
              0               1               0               0 
              0               0               1               0 
2  65 1 66 1 67 -1 70 1 0
2  63 -1 70 -1 67 1 66 -1 65 -1 0
2  67 -1 0
2  65 1 66 1 0
2  67 -1 70 1 0
Curve2ds 16
1 1.5707963267948968 0 0 -1 
1 3.1415926535897931 0 0 -1 
1 0 0 1 0 
1 0 -50 1 0 
1 3.1415926535897936 0 0 -1 
1 4.7123889803846897 0 0 -1 
1 0 0 1 0 
1 0 -50 1 0 
1 1.5707963267948968 0 0 -1 
1 3.1415926535897931 0 0 -1 
1 0 0 1 0 
1 0 -50 1 0 
1 3.1415926535897936 0 0 -1 
1 4.7123889803846897 0 0 -1 
1 0 0 1 0 
1 0 -50 1 0 
Curves 96
1 0 0 0 0 0 1 
1 0 2300 0 0 0 1 
1 0 0 0 0 1 0 
1 0 0 0 0 1 0 
1 1500 2300 0 0 0 1 
1 0 2300 0 1 0 0 
1 0 2300 0 1 0 0 
1 1500 1700.0000000000007 0 0 0 1 
1 1500 2300 0 0 -1 0 
1 1500 2300 0 0 -1 0 
1 1308.4169876132571 1700.0000000000007 0 0 0 1 
1 1500 1700.0000000000007 0 -1 0 0 
1 1500 1700.0000000000007 0 -1 0 0 
1 1008.4169876132571 1400.0000000000007 0 0 0 1 
2 1308.4169876132571 1400.0000000000007 0 0 0 1 1 0 -0 -0 1 0 300
2 1308.4169876132571 1400.0000000000007 0 0 0 1 1 0 -0 -0 1 0 300
1 1008.4169876132571 1100 0 0 0 1 
1 1008.4169876132571 1400.0000000000007 0 0 -1 0 
1 1008.4169876132571 1400.0000000000007 0 0 -1 0 
1 1308.4169876132571 800 0 0 0 1 
2 1308.4169876132571 1100 0 0 0 1 1 0 -0 -0 1 0 300
2 1308.4169876132571 1100 0 0 0 1 1 0 -0 -0 1 0 300
1 1500 800 0 0 0 1 
1 1308.4169876132571 800 0 1 0 0 
1 1308.4169876132571 800 0 1 0 0 
1 1500 0 0 0 0 1 
1 1500 800 0 0 -1 0 
1 1500 800 0 0 -1 0 
1 1500 0 0 -1 0 0 
1 1500 0 0 -1 0 0 
1 0 0 0 0 0 1 
1 0 2300 0 0 0 1 
1 0 0 0 0 1 0 
1 0 0 0 0 1 0 
1 1500 2300 0 0 0 1 
1 0 2300 0 1 0 0 
1 0 2300 0 1 0 0 
1 1500 1700.0000000000007 0 0 0 1 
1 1500 2300 0 0 -1 0 
1 1500 2300 0 0 -1 0 
1 1308.4169876132571 1700.0000000000007 0 0 0 1 
1 1500 1700.0000000000007 0 -1 0 0 
1 1500 1700.0000000000007 0 -1 0 0 
1 1008.4169876132571 1400.0000000000007 0 0 0 1 
2 1308.4169876132571 1400.0000000000007 0 0 0 1 1 0 -0 -0 1 0 300
2 1308.4169876132571 1400.0000000000007 0 0 0 1 1 0 -0 -0 1 0 300
1 1008.4169876132571 1100 0 0 0 1 
1 1008.4169876132571 1400.0000000000007 0 0 -1 0 
1 1008.4169876132571 1400.0000000000007 0 0 -1 0 
1 1308.4169876132571 800 0 0 0 1 
2 1308.4169876132571 1100 0 0 0 1 1 0 -0 -0 1 0 300
2 1308.4169876132571 1100 0 0 0 1 1 0 -0 -0 1 0 300
1 1500 800 0 0 0 1 
1 1308.4169876132571 800 0 1 0 0 
1 1308.4169876132571 800 0 1 0 0 
1 1500 0 0 0 0 1 
1 1500 800 0 0 -1 0 
1 1500 800 0 0 -1 0 
1 1500 0 0 -1 0 0 
1 1500 0 0 -1 0 0 
1 0 804.32916299999999 0 1 0 0 
1 0 804.32916299999999 -1955.3572999999999 1 0 0 
1 804.32916299999999 0 0 0 -1 0 
1 804.32916299999999 0 0 0 -1 0 
1 0 0 -1955.3572999999999 1 0 0 
1 804.32916299999999 -1955.3572999999999 0 -1 0 0 
1 804.32916299999999 -1955.3572999999999 0 -1 0 0 
1 0 0 0 1 0 0 
1 0 -1955.3572999999999 0 0 1 0 
1 0 -1955.3572999999999 0 0 1 0 
1 0 0 0 1 0 0 
1 0 0 0 1 0 0 
1 0 1704.0761181844575 0 1 0 0 
1 0 1704.0761181844575 -1965 1 0 0 
1 1704.0761181844575 0 0 0 -1 0 
1 1704.0761181844575 0 0 0 -1 0 
1 0 2304.0761181844573 -1965 1 0 0 
1 1704.0761181844575 -1965 0 1 0 0 
1 1704.0761181844575 -1965 0 1 0 0 
1 0 2304.0761181844573 0 1 0 0 
1 2304.0761181844573 -1965 0 0 1 0 
1 2304.0761181844573 -1965 0 0 1 0 
1 1704.0761181844575 0 0 1 0 0 
1 1704.0761181844575 0 0 1 0 0 
1 0 1704.0761181844575 0 1 0 0 
1 0 1704.0761181844575 -1965 1 0 0 
1 1704.0761181844575 0 0 0 -1 0 
1 1704.0761181844575 0 0 0 -1 0 
1 0 2304.0761181844573 -1965 1 0 0 
1 1704.0761181844575 -1965 0 1 0 0 
1 1704.0761181844575 -1965 0 1 0 0 
1 0 2304.0761181844573 0 1 0 0 
1 2304.0761181844573 -1965 0 0 1 0 
1 2304.0761181844573 -1965 0 0 1 0 
1 1704.0761181844575 0 0 1 0 0 
1 1704.0761181844575 0 0 1 0 0 
Polygon3D 0
PolygonOnTriangulations 0
Surfaces 42
1 0 0 0 -1 0 0 0 1 0 0 0 -1 
1 0 2300 0 0 1 0 1 0 0 0 0 -1 
1 1500 2300 0 1 0 0 0 -1 0 0 0 -1 
1 1500 1700.0000000000007 0 0 -1 0 -1 0 0 -0 -0 -1 
2 1308.4169876132571 1400.0000000000007 0 -0 -0 -1 1 0 0 -0 1 -0 300
1 1008.4169876132571 1400.0000000000007 0 1 0 0 0 -1 0 0 0 -1 
2 1308.4169876132571 1100 0 -0 -0 -1 1 0 0 -0 1 -0 300
1 1308.4169876132571 800 0 0 1 0 1 0 0 0 0 -1 
1 1500 800 0 1 0 0 0 -1 0 0 0 -1 
1 1500 0 0 0 -1 0 -1 0 0 -0 -0 -1 
1 749.95587939140489 1158.5979787242554 0 0 0 1 1 0 -0 -0 1 0 
1 749.95587939140489 1158.5979787242554 0 0 0 1 1 0 -0 -0 1 0 
1 0 0 0 -1 0 0 0 1 0 0 0 -1 
1 0 2300 0 0 1 0 1 0 0 0 0 -1 
1 1500 2300 0 1 0 0 0 -1 0 0 0 -1 
1 1500 1700.0000000000007 0 0 -1 0 -1 0 0 -0 -0 -1 
2 1308.4169876132571 1400.0000000000007 0 -0 -0 -1 1 0 0 -0 1 -0 300
1 1008.4169876132571 1400.0000000000007 0 1 0 0 0 -1 0 0 0 -1 
2 1308.4169876132571 1100 0 -0 -0 -1 1 0 0 -0 1 -0 300
1 1308.4169876132571 800 0 0 1 0 1 0 0 0 0 -1 
1 1500 800 0 1 0 0 0 -1 0 0 0 -1 
1 1500 0 0 0 -1 0 -1 0 0 -0 -0 -1 
1 749.95587939140489 1158.5979787242554 0 0 0 1 1 0 -0 -0 1 0 
1 749.95587939140489 1158.5979787242554 0 0 0 1 1 0 -0 -0 1 0 
1 0 804.32916299999999 0 0 1 0 0 0 -1 -1 0 0 
1 0 804.32916299999999 -1955.3572999999999 0 0 -1 0 -1 0 -1 -0 -0 
1 0 0 -1955.3572999999999 0 -1 0 0 0 1 -1 0 0 
1 0 0 0 0 0 1 0 1 0 -1 0 0 
1 0 402.16458149999994 -977.67864999999983 1 0 0 0 0 1 0 -1 0 
1 0 402.16458149999994 -977.67864999999983 1 0 0 0 0 1 0 -1 0 
1 0 1704.0761181844575 0 0 1 0 0 0 -1 -1 0 0 
1 0 1704.0761181844575 -1965 0 0 1 0 1 0 -1 0 0 
1 0 2304.0761181844573 -1965 0 -1 0 0 0 1 -1 0 0 
1 0 1704.0761181844575 0 0 0 1 0 1 0 -1 0 0 
1 0 2004.0761181844575 -982.5 1 0 0 0 0 1 0 -1 0 
1 0 2004.0761181844575 -982.5 1 0 0 0 0 1 0 -1 0 
1 0 1704.0761181844575 0 0 1 0 0 0 -1 -1 0 0 
1 0 1704.0761181844575 -1965 0 0 1 0 1 0 -1 0 0 
1 0 2304.0761181844573 -1965 0 -1 0 0 0 1 -1 0 0 
1 0 1704.0761181844575 0 0 0 1 0 1 0 -1 0 0 
1 0 2004.0761181844575 -982.5 1 0 0 0 0 1 0 -1 0 
1 0 2004.0761181844575 -982.5 1 0 0 0 0 1 0 -1 0 
Triangulations 0

TShapes 255
Ve
1e-07
0 0 0
0 0

0101101
*
Ve
1e-07
0 0 50
0 0

0101101
*
Ed
 1e-07 1 1 0
1  1 0 0 50
0

0101000
+255 4 -254 4 *
Ve
1e-07
0 2300 0
0 0

0101101
*
Ve
1e-07
0 2300 50
0 0

0101101
*
Ed
 1e-07 1 1 0
1  2 0 0 50
0

0101000
+252 4 -251 4 *
Ed
 1e-07 1 1 0
1  3 0 0 2300
0

0101000
+255 9 -252 9 *
Ed
 1e-07 1 1 0
1  4 0 0 2300
0

0101000
+254 12 -251 12 *
Wi

0101100
+253 0 -250 0 -249 8 +248 11 *
Fa
0  1e-07 1 0

0101000
+247 0 *
Ve
1e-07
1500 2300 0
0 0

0101101
*
Ve
1e-07
1500 2300 50
0 0

0101101
*
Ed
 1e-07 1 1 0
1  5 0 0 50
0

0101000
+245 4 -244 4 *
Ed
 1e-07 1 1 0
1  6 0 0 1500
0

0101000
+252 9 -245 9 *
Ed
 1e-07 1 1 0
1  7 0 0 1500
0

0101000
+251 12 -244 12 *
Wi

0101100
+250 0 -243 0 -242 8 +241 11 *
Fa
0  1e-07 2 0

0101000
+240 0 *
Ve
1e-07
1500 1700 0
0 0

0101101
*
Ve
1e-07
1500 1700 50
0 0

0101101
*
Ed
 1e-07 1 1 0
1  8 0 0 50
0

0101000
+238 4 -237 4 *
Ed
 1e-07 1 1 0
1  9 0 0 599.999999999999
0

0101000
+245 9 -238 9 *
Ed
 1e-07 1 1 0
1  10 0 0 599.999999999999
0

0101000
+244 12 -237 12 *
Wi

0101100
+243 0 -236 0 -235 8 +234 11 *
Fa
0  1e-07 3 0

0101000
+233 0 *
Ve
1e-07
1308.41698761326 1700 0
0 0

0101101
*
Ve
1e-07
1308.41698761326 1700 50
0 0

0101101
*
Ed
 1e-07 1 1 0
1  11 0 0 50
2  1 5 0 0 50
4 G1 4 0 5 0
0

0101000
+231 4 -230 4 *
Ed
 1e-07 1 1 0
1  12 0 0 191.583012386743
0

0101000
+238 9 -231 9 *
Ed
 1e-07 1 1 0
1  13 0 0 191.583012386743
0

0101000
+237 12 -230 12 *
Wi

0101100
+236 0 -229 0 -228 8 +227 11 *
Fa
0  1e-07 4 0

0101000
+226 0 *
Ve
1e-07
1008.41698761326 1400 0
0 0

0101101
*
Ve
1e-07
1008.41698761326 1400 50
0 0

0101101
*
Ed
 1e-07 1 1 0
1  14 0 0 50
2  2 5 0 0 50
4 G1 5 0 6 0
0

0101000
+224 4 -223 4 *
Ed
 1e-07 1 1 0
1  15 0 1.5707963267949 3.14159265358979
2  3 5 13 1.5707963267949 3.14159265358979
0

0101000
+231 9 -224 9 *
Ed
 1e-07 1 1 0
1  16 0 1.5707963267949 3.14159265358979
2  4 5 14 1.5707963267949 3.14159265358979
0

0101000
+230 12 -223 12 *
Wi

0101100
+229 0 -222 0 -221 8 +220 11 *
Fa
0  1e-07 5 0

0101000
+219 0 *
Ve
1e-07
1008.41698761326 1100 0
0 0

0101101
*
Ve
1e-07
1008.41698761326 1100 50
0 0

0101101
*
Ed
 1e-07 1 1 0
1  17 0 0 50
2  5 7 0 0 50
4 G1 6 0 7 0
0

0101000
+217 4 -216 4 *
Ed
 1e-07 1 1 0
1  18 0 0 300.000000000001
0

0101000
+224 9 -217 9 *
Ed
 1e-07 1 1 0
1  19 0 0 300.000000000001
0

0101000
+223 12 -216 12 *
Wi

0101100
+222 0 -215 0 -214 8 +213 11 *
Fa
0  1e-07 6 0

0101000
+212 0 *
Ve
1e-07
1308.41698761326 800 0
0 0

0101101
*
Ve
1e-07
1308.41698761326 800 50
0 0

0101101
*
Ed
 1e-07 1 1 0
1  20 0 0 50
2  6 7 0 0 50
4 G1 7 0 8 0
0

0101000
+210 4 -209 4 *
Ed
 1e-07 1 1 0
1  21 0 3.14159265358979 4.71238898038469
2  7 7 13 3.14159265358979 4.71238898038469
0

0101000
+217 9 -210 9 *
Ed
 1e-07 1 1 0
1  22 0 3.14159265358979 4.71238898038469
2  8 7 14 3.14159265358979 4.71238898038469
0

0101000
+216 12 -209 12 *
Wi

0101100
+215 0 -208 0 -207 8 +206 11 *
Fa
0  1e-07 7 0

0101000
+205 0 *
Ve
1e-07
1500 800 0
0 0

0101101
*
Ve
1e-07
1500 800 50
0 0

0101101
*
Ed
 1e-07 1 1 0
1  23 0 0 50
0

0101000
+203 4 -202 4 *
Ed
 1e-07 1 1 0
1  24 0 0 191.583012386743
0

0101000
+210 9 -203 9 *
Ed
 1e-07 1 1 0
1  25 0 0 191.583012386743
0

0101000
+209 12 -202 12 *
Wi

0101100
+208 0 -201 0 -200 8 +199 11 *
Fa
0  1e-07 8 0

0101000
+198 0 *
Ve
1e-07
1500 0 0
0 0

0101101
*
Ve
1e-07
1500 0 50
0 0

0101101
*
Ed
 1e-07 1 1 0
1  26 0 0 50
0

0101000
+196 4 -195 4 *
Ed
 1e-07 1 1 0
1  27 0 0 800
0

0101000
+203 9 -196 9 *
Ed
 1e-07 1 1 0
1  28 0 0 800
0

0101000
+202 12 -195 12 *
Wi

0101100
+201 0 -194 0 -193 8 +192 11 *
Fa
0  1e-07 9 0

0101000
+191 0 *
Ed
 1e-07 1 1 0
1  29 0 0 1500
0

0101000
+196 9 -255 9 *
Ed
 1e-07 1 1 0
1  30 0 0 1500
0

0101000
+195 12 -254 12 *
Wi

0101100
+194 0 -253 0 -189 8 +188 11 *
Fa
0  1e-07 10 0

0101000
+187 0 *
Wi

0101100
+249 0 +242 0 +235 0 +228 0 +221 0 +214 0 +207 0 +200 0 +193 0 +189 0 
*
Fa
0  1e-07 11 0

0101000
-185 16 *
Wi

0101100
+248 0 +241 0 +234 0 +227 0 +220 0 +213 0 +206 0 +199 0 +192 0 +188 0 
*
Fa
0  1e-07 12 0

0101000
-183 16 *
Sh

0101100
-246 0 -239 0 -232 0 -225 0 -218 0 -211 0 -204 0 -197 0 -190 0 -186 0 
+184 15 -182 17 *
So

0100000
-181 0 *
Ve
1e-07
0 0 0
0 0

0101101
*
Ve
1e-07
0 0 50
0 0

0101101
*
Ed
 1e-07 1 1 0
1  31 0 0 50
0

0101000
+179 20 -178 20 *
Ve
1e-07
0 2300 0
0 0

0101101
*
Ve
1e-07
0 2300 50
0 0

0101101
*
Ed
 1e-07 1 1 0
1  32 0 0 50
0

0101000
+176 20 -175 20 *
Ed
 1e-07 1 1 0
1  33 0 0 2300
0

0101000
+179 25 -176 25 *
Ed
 1e-07 1 1 0
1  34 0 0 2300
0

0101000
+178 28 -175 28 *
Wi

0101100
+177 0 -174 0 -173 24 +172 27 *
Fa
0  1e-07 13 0

0101000
+171 0 *
Ve
1e-07
1500 2300 0
0 0

0101101
*
Ve
1e-07
1500 2300 50
0 0

0101101
*
Ed
 1e-07 1 1 0
1  35 0 0 50
0

0101000
+169 20 -168 20 *
Ed
 1e-07 1 1 0
1  36 0 0 1500
0

0101000
+176 25 -169 25 *
Ed
 1e-07 1 1 0
1  37 0 0 1500
0

0101000
+175 28 -168 28 *
Wi

0101100
+174 0 -167 0 -166 24 +165 27 *
Fa
0  1e-07 14 0

0101000
+164 0 *
Ve
1e-07
1500 1700 0
0 0

0101101
*
Ve
1e-07
1500 1700 50
0 0

0101101
*
Ed
 1e-07 1 1 0
1  38 0 0 50
0

0101000
+162 20 -161 20 *
Ed
 1e-07 1 1 0
1  39 0 0 599.999999999999
0

0101000
+169 25 -162 25 *
Ed
 1e-07 1 1 0
1  40 0 0 599.999999999999
0

0101000
+168 28 -161 28 *
Wi

0101100
+167 0 -160 0 -159 24 +158 27 *
Fa
0  1e-07 15 0

0101000
+157 0 *
Ve
1e-07
1308.41698761326 1700 0
0 0

0101101
*
Ve
1e-07
1308.41698761326 1700 50
0 0

0101101
*
Ed
 1e-07 1 1 0
1  41 0 0 50
2  9 17 0 0 50
4 G1 16 0 17 0
0

0101000
+155 20 -154 20 *
Ed
 1e-07 1 1 0
1  42 0 0 191.583012386743
0

0101000
+162 25 -155 25 *
Ed
 1e-07 1 1 0
1  43 0 0 191.583012386743
0

0101000
+161 28 -154 28 *
Wi

0101100
+160 0 -153 0 -152 24 +151 27 *
Fa
0  1e-07 16 0

0101000
+150 0 *
Ve
1e-07
1008.41698761326 1400 0
0 0

0101101
*
Ve
1e-07
1008.41698761326 1400 50
0 0

0101101
*
Ed
 1e-07 1 1 0
1  44 0 0 50
2  10 17 0 0 50
4 G1 17 0 18 0
0

0101000
+148 20 -147 20 *
Ed
 1e-07 1 1 0
1  45 0 1.5707963267949 3.14159265358979
2  11 17 29 1.5707963267949 3.14159265358979
0

0101000
+155 25 -148 25 *
Ed
 1e-07 1 1 0
1  46 0 1.5707963267949 3.14159265358979
2  12 17 30 1.5707963267949 3.14159265358979
0

0101000
+154 28 -147 28 *
Wi

0101100
+153 0 -146 0 -145 24 +144 27 *
Fa
0  1e-07 17 0

0101000
+143 0 *
Ve
1e-07
1008.41698761326 1100 0
0 0

0101101
*
Ve
1e-07
1008.41698761326 1100 50
0 0

0101101
*
Ed
 1e-07 1 1 0
1  47 0 0 50
2  13 19 0 0 50
4 G1 18 0 19 0
0

0101000
+141 20 -140 20 *
Ed
 1e-07 1 1 0
1  48 0 0 300.000000000001
0

0101000
+148 25 -141 25 *
Ed
 1e-07 1 1 0
1  49 0 0 300.000000000001
0

0101000
+147 28 -140 28 *
Wi

0101100
+146 0 -139 0 -138 24 +137 27 *
Fa
0  1e-07 18 0

0101000
+136 0 *
Ve
1e-07
1308.41698761326 800 0
0 0

0101101
*
Ve
1e-07
1308.41698761326 800 50
0 0

0101101
*
Ed
 1e-07 1 1 0
1  50 0 0 50
2  14 19 0 0 50
4 G1 19 0 20 0
0

0101000
+134 20 -133 20 *
Ed
 1e-07 1 1 0
1  51 0 3.14159265358979 4.71238898038469
2  15 19 29 3.14159265358979 4.71238898038469
0

0101000
+141 25 -134 25 *
Ed
 1e-07 1 1 0
1  52 0 3.14159265358979 4.71238898038469
2  16 19 30 3.14159265358979 4.71238898038469
0

0101000
+140 28 -133 28 *
Wi

0101100
+139 0 -132 0 -131 24 +130 27 *
Fa
0  1e-07 19 0

0101000
+129 0 *
Ve
1e-07
1500 800 0
0 0

0101101
*
Ve
1e-07
1500 800 50
0 0

0101101
*
Ed
 1e-07 1 1 0
1  53 0 0 50
0

0101000
+127 20 -126 20 *
Ed
 1e-07 1 1 0
1  54 0 0 191.583012386743
0

0101000
+134 25 -127 25 *
Ed
 1e-07 1 1 0
1  55 0 0 191.583012386743
0

0101000
+133 28 -126 28 *
Wi

0101100
+132 0 -125 0 -124 24 +123 27 *
Fa
0  1e-07 20 0

0101000
+122 0 *
Ve
1e-07
1500 0 0
0 0

0101101
*
Ve
1e-07
1500 0 50
0 0

0101101
*
Ed
 1e-07 1 1 0
1  56 0 0 50
0

0101000
+120 20 -119 20 *
Ed
 1e-07 1 1 0
1  57 0 0 800
0

0101000
+127 25 -120 25 *
Ed
 1e-07 1 1 0
1  58 0 0 800
0

0101000
+126 28 -119 28 *
Wi

0101100
+125 0 -118 0 -117 24 +116 27 *
Fa
0  1e-07 21 0

0101000
+115 0 *
Ed
 1e-07 1 1 0
1  59 0 0 1500
0

0101000
+120 25 -179 25 *
Ed
 1e-07 1 1 0
1  60 0 0 1500
0

0101000
+119 28 -178 28 *
Wi

0101100
+118 0 -177 0 -113 24 +112 27 *
Fa
0  1e-07 22 0

0101000
+111 0 *
Wi

0101100
+173 0 +166 0 +159 0 +152 0 +145 0 +138 0 +131 0 +124 0 +117 0 +113 0 
*
Fa
0  1e-07 23 0

0101000
-109 32 *
Wi

0101100
+172 0 +165 0 +158 0 +151 0 +144 0 +137 0 +130 0 +123 0 +116 0 +112 0 
*
Fa
0  1e-07 24 0

0101000
-107 32 *
Sh

0101100
-170 0 -163 0 -156 0 -149 0 -142 0 -135 0 -128 0 -121 0 -114 0 -110 0 
+108 31 -106 33 *
So

0100000
-105 0 *
Ve
1e-07
0 804.329163 0
0 0

0101101
*
Ve
1e-07
80 804.329163 0
0 0

0101101
*
Ed
 1e-07 1 1 0
1  61 0 0 80
0

0101000
+103 36 -102 36 *
Ve
1e-07
0 804.329163 -1955.3573
0 0

0101101
*
Ve
1e-07
80 804.329163 -1955.3573
0 0

0101101
*
Ed
 1e-07 1 1 0
1  62 0 0 80
0

0101000
+100 36 -99 36 *
Ed
 1e-07 1 1 0
1  63 0 0 1955.3573
0

0101000
+103 41 -100 41 *
Ed
 1e-07 1 1 0
1  64 0 0 1955.3573
0

0101000
+102 44 -99 44 *
Wi

0101100
+101 0 -98 0 -97 40 +96 43 *
Fa
0  1e-07 25 0

0101000
+95 0 *
Ve
1e-07
0 0 -1955.3573
0 0

0101101
*
Ve
1e-07
80 0 -1955.3573
0 0

0101101
*
Ed
 1e-07 1 1 0
1  65 0 0 80
0

0101000
+93 36 -92 36 *
Ed
 1e-07 1 1 0
1  66 0 0 804.329163
0

0101000
+100 41 -93 41 *
Ed
 1e-07 1 1 0
1  67 0 0 804.329163
0

0101000
+99 44 -92 44 *
Wi

0101100
+98 0 -91 0 -90 40 +89 43 *
Fa
0  1e-07 26 0

0101000
+88 0 *
Ve
1e-07
0 0 0
0 0

0101101
*
Ve
1e-07
80 0 0
0 0

0101101
*
Ed
 1e-07 1 1 0
1  68 0 0 80
0

0101000
+86 36 -85 36 *
Ed
 1e-07 1 1 0
1  69 0 0 1955.3573
0

0101000
+93 41 -86 41 *
Ed
 1e-07 1 1 0
1  70 0 0 1955.3573
0

0101000
+92 44 -85 44 *
Wi

0101100
+91 0 -84 0 -83 40 +82 43 *
Fa
0  1e-07 27 0

0101000
+81 0 *
Ed
 1e-07 1 1 0
1  71 0 0 804.329163
0

0101000
+86 41 -103 41 *
Ed
 1e-07 1 1 0
1  72 0 0 804.329163
0

0101000
+85 44 -102 44 *
Wi

0101100
+84 0 -101 0 -79 40 +78 43 *
Fa
0  1e-07 28 0

0101000
+77 0 *
Wi

0101100
+97 0 +90 0 +83 0 +79 0 *
Fa
0  1e-07 29 0

0101000
-75 46 *
Wi

0101100
+96 0 +89 0 +82 0 +78 0 *
Fa
0  1e-07 30 0

0101000
-73 46 *
Sh

0101100
-94 0 -87 0 -80 0 -76 0 +74 45 -72 47 *
So

0100000
-71 0 *
Ve
1e-07
0 1704.07611818446 0
0 0

0101101
*
Ve
1e-07
60 1704.07611818446 0
0 0

0101101
*
Ed
 1e-07 1 1 0
1  73 0 0 60
0

0101000
+69 50 -68 50 *
Ve
1e-07
0 1704.07611818446 -1965
0 0

0101101
*
Ve
1e-07
60 1704.07611818446 -1965
0 0

0101101
*
Ed
 1e-07 1 1 0
1  74 0 0 60
0

0101000
+66 50 -65 50 *
Ed
 1e-07 1 1 0
1  75 0 0 1965
0

0101000
+69 55 -66 55 *
Ed
 1e-07 1 1 0
1  76 0 0 1965
0

0101000
+68 58 -65 58 *
Wi

0101100
+67 0 -64 0 -63 54 +62 57 *
Fa
0  1e-07 31 0

0101000
+61 0 *
Ve
1e-07
0 2304.07611818446 -1965
0 0

0101101
*
Ve
1e-07
60 2304.07611818446 -1965
0 0

0101101
*
Ed
 1e-07 1 1 0
1  77 0 0 60
0

0101000
+59 50 -58 50 *
Ed
 1e-07 1 1 0
1  78 0 0 600
0

0101000
+66 55 -59 55 *
Ed
 1e-07 1 1 0
1  79 0 0 600
0

0101000
+65 58 -58 58 *
Wi

0101100
+64 0 -57 0 -56 54 +55 57 *
Fa
0  1e-07 32 0

0101000
+54 0 *
Ve
1e-07
0 2304.07611818446 0
0 0

0101101
*
Ve
1e-07
60 2304.07611818446 0
0 0

0101101
*
Ed
 1e-07 1 1 0
1  80 0 0 60
0

0101000
+52 50 -51 50 *
Ed
 1e-07 1 1 0
1  81 0 0 1965
0

0101000
+59 55 -52 55 *
Ed
 1e-07 1 1 0
1  82 0 0 1965
0

0101000
+58 58 -51 58 *
Wi

0101100
+57 0 -50 0 -49 54 +48 57 *
Fa
0  1e-07 33 0

0101000
+47 0 *
Ed
 1e-07 1 1 0
1  83 0 0 600
0

0101000
+69 55 -52 55 *
Ed
 1e-07 1 1 0
1  84 0 0 600
0

0101000
+68 58 -51 58 *
Wi

0101100
+67 0 -50 0 -45 54 +44 57 *
Fa
0  1e-07 34 0

0101000
+43 0 *
Wi

0101100
+63 0 +56 0 +49 0 -45 0 *
Fa
0  1e-07 35 0

0101000
+41 60 *
Wi

0101100
+62 0 +55 0 +48 0 -44 0 *
Fa
0  1e-07 36 0

0101000
+39 60 *
Sh

0101100
+60 0 +53 0 +46 0 -42 0 +40 59 -38 61 *
So

0100000
-37 0 *
Ve
1e-07
0 1704.07611818446 0
0 0

0101101
*
Ve
1e-07
60 1704.07611818446 0
0 0

0101101
*
Ed
 1e-07 1 1 0
1  85 0 0 60
0

0101000
+35 64 -34 64 *
Ve
1e-07
0 1704.07611818446 -1965
0 0

0101101
*
Ve
1e-07
60 1704.07611818446 -1965
0 0

0101101
*
Ed
 1e-07 1 1 0
1  86 0 0 60
0

0101000
+32 64 -31 64 *
Ed
 1e-07 1 1 0
1  87 0 0 1965
0

0101000
+35 69 -32 69 *
Ed
 1e-07 1 1 0
1  88 0 0 1965
0

0101000
+34 72 -31 72 *
Wi

0101100
+33 0 -30 0 -29 68 +28 71 *
Fa
0  1e-07 37 0

0101000
+27 0 *
Ve
1e-07
0 2304.07611818446 -1965
0 0

0101101
*
Ve
1e-07
60 2304.07611818446 -1965
0 0

0101101
*
Ed
 1e-07 1 1 0
1  89 0 0 60
0

0101000
+25 64 -24 64 *
Ed
 1e-07 1 1 0
1  90 0 0 600
0

0101000
+32 69 -25 69 *
Ed
 1e-07 1 1 0
1  91 0 0 600
0

0101000
+31 72 -24 72 *
Wi

0101100
+30 0 -23 0 -22 68 +21 71 *
Fa
0  1e-07 38 0

0101000
+20 0 *
Ve
1e-07
0 2304.07611818446 0
0 0

0101101
*
Ve
1e-07
60 2304.07611818446 0
0 0

0101101
*
Ed
 1e-07 1 1 0
1  92 0 0 60
0

0101000
+18 64 -17 64 *
Ed
 1e-07 1 1 0
1  93 0 0 1965
0

0101000
+25 69 -18 69 *
Ed
 1e-07 1 1 0
1  94 0 0 1965
0

0101000
+24 72 -17 72 *
Wi

0101100
+23 0 -16 0 -15 68 +14 71 *
Fa
0  1e-07 39 0

0101000
+13 0 *
Ed
 1e-07 1 1 0
1  95 0 0 600
0

0101000
+35 69 -18 69 *
Ed
 1e-07 1 1 0
1  96 0 0 600
0

0101000
+34 72 -17 72 *
Wi

0101100
+33 0 -16 0 -11 68 +10 71 *
Fa
0  1e-07 40 0

0101000
+9 0 *
Wi

0101100
+29 0 +22 0 +15 0 -11 0 *
Fa
0  1e-07 41 0

0101000
+7 74 *
Wi

0101100
+28 0 +21 0 +14 0 -10 0 *
Fa
0  1e-07 42 0

0101000
+5 74 *
Sh

0101100
+26 0 +19 0 +12 0 -8 0 +6 73 -4 75 *
So

0100000
-3 0 *
Co

1100000
+180 2 +104 18 +70 34 +36 48 +2 62 *

+1 1 