DBRep_DrawableShape

CASCADE Topology V1, (c) Matra-Datavision
Locations 16
1
             -1               0               0 5995.34441993308 
              0               0               1 -162.718329746481 
             -0               1              -0 -4178.38167025352 
1
              1               0               0               0 
              0               1               0               0 
              0               0               1               0 
2  2 -1 0
1
              1               0               0               0 
              0               1               0               0 
              0               0               1               0 
1
              1               0               0               0 
              0               1               0               0 
              0               0               1               0 
1
              1               0               0               0 
              0               1               0               0 
              0               0               1               0 
2  4 1 5 1 6 -1 0
2  2 -1 6 1 5 -1 4 -1 0
1
              1               0               0               0 
              0               1               0               0 
              0               0               1             100 
2  4 1 5 1 6 -1 9 1 0
2  2 -1 9 -1 6 1 5 -1 4 -1 0
2  6 1 5 -1 4 -1 0
2  9 -1 6 1 5 -1 4 -1 0
2  6 -1 0
2  4 1 5 1 0
2  6 -1 9 1 0
Curve2ds 16
1 5.5152404363018883 0 0 -1 
1 3.6651914291881234 0 0 -1 
1 2.3561944901919269 0 0 -1 
1 0 0 1 0 
1 0 -100 1 0 
1 5.2359877559830519 0 0 -1 
1 2.6179938779920868 0 0 -1 
1 0 0 1 0 
1 0 -100 1 0 
1 0.76794487087762053 0 0 -1 
1 0.22699862664000001 0 0 -1 
1 0 0 1 0 
1 0 -100 1 0 
1 3.909537524467491 0 0 -1 
1 0 0 1 0 
1 0 -100 1 0 
Curves 78
1 5995.9726818068357 4174.2017661730033 0 0 0 1 
1 6001.6794702186417 4180.1113185678223 0 0 0 1 
1 5995.9726818068357 4174.2017661730033 0 0.69465837045868251 0.71933980033895517 0 
1 5995.9726818068357 4174.2017661730033 0 0.69465837045868251 0.71933980033895517 0 
1 5977.041192642062 4222.786067141441 0 0 0 1 
1 6001.6794702186417 4180.1113185678223 0 -0.50000000000001987 0.86602540378442727 0 
1 6001.6794702186417 4180.1113185678223 0 -0.50000000000001987 0.86602540378442727 0 
1 5980.2195650940257 4246.9282027651816 0 0 0 1 
2 5994.3617007177527 4232.7860671414428 0 0 0 1 1 0 -0 -0 1 0 20.000000000002736
2 5994.3617007177527 4232.7860671414428 0 0 0 1 1 0 -0 -0 1 0 20.000000000002736
1 6001.897209966537 4268.605847637672 0 0 0 1 
1 5980.2195650940257 4246.9282027651816 0 0.70710678118688874 0.7071067811862064 0 
1 5980.2195650940257 4246.9282027651816 0 0.70710678118688874 0.7071067811862064 0 
1 6001.897209966537 4277.6058476376702 0 0 0 1 
1 6001.897209966537 4268.605847637672 0 0 1 0 
1 6001.897209966537 4268.605847637672 0 0 1 0 
1 6000.8972099665416 4278.6058476376702 0 0 0 1 
1 6001.897209966537 4277.6058476376702 0 -0.70710678118493975 0.70710678118815529 0 
1 6001.897209966537 4277.6058476376702 0 -0.70710678118493975 0.70710678118815529 0 
1 5990.3579794819962 4278.6058476376702 0 0 0 1 
1 6000.8972099665416 4278.6058476376702 0 -1 0 0 
1 6000.8972099665416 4278.6058476376702 0 -1 0 0 
1 5989.5972099665387 4278.1666171531288 0 0 0 1 
1 5990.3579794819962 4278.6058476376702 0 -0.86602540378403969 -0.50000000000069111 0 
1 5990.3579794819962 4278.6058476376702 0 -0.86602540378403969 -0.50000000000069111 0 
1 5987.9579794819965 4279.80584763767 0 0 0 1 
2 5988.9972099665383 4279.2058476376706 0 0 0 1 1 0 -0 -0 1 0 1.2000000000001405
2 5988.9972099665383 4279.2058476376706 0 0 0 1 1 0 -0 -0 1 0 1.2000000000001405
1 5988.3972099665389 4280.5666171531293 0 0 0 1 
1 5987.9579794819965 4279.80584763767 0 0.50000000000057099 0.86602540378410897 0 
1 5987.9579794819965 4279.80584763767 0 0.50000000000057099 0.86602540378410897 0 
1 5988.3972099665389 4307.6058476376693 0 0 0 1 
1 5988.3972099665389 4280.5666171531293 0 0 1 0 
1 5988.3972099665389 4280.5666171531293 0 0 1 0 
1 5987.397209966538 4308.6058476376711 0 0 0 1 
1 5988.3972099665389 4307.6058476376693 0 -0.70710678118622605 0.70710678118686909 0 
1 5988.3972099665389 4307.6058476376693 0 -0.70710678118622605 0.70710678118686909 0 
1 5976.397209966538 4308.6058476376711 0 0 0 1 
1 5987.397209966538 4308.6058476376711 0 -1 0 0 
1 5987.397209966538 4308.6058476376711 0 -1 0 0 
1 5975.3972099665389 4307.6058476376693 0 0 0 1 
1 5976.397209966538 4308.6058476376711 0 -0.7071067811855829 -0.70710678118751213 0 
1 5976.397209966538 4308.6058476376711 0 -0.7071067811855829 -0.70710678118751213 0 
1 5975.3972099665389 4291.6058476376702 0 0 0 1 
1 5975.3972099665389 4307.6058476376693 0 0 -1 0 
1 5975.3972099665389 4307.6058476376693 0 0 -1 0 
1 5978.3972099665389 4291.6058476376702 0 0 0 1 
1 5975.3972099665389 4291.6058476376702 0 1 0 0 
1 5975.3972099665389 4291.6058476376702 0 1 0 0 
1 5978.3972099665389 4283.3058476376691 0 0 0 1 
1 5978.3972099665389 4291.6058476376702 0 0 -1 0 
1 5978.3972099665389 4291.6058476376702 0 0 -1 0 
1 5975.3972099665389 4283.3058476376691 0 0 0 1 
1 5978.3972099665389 4283.3058476376691 0 -1 0 0 
1 5978.3972099665389 4283.3058476376691 0 -1 0 0 
1 5975.3972099665389 4278.6058476376702 0 0 0 1 
1 5975.3972099665389 4283.3058476376691 0 0 -1 0 
1 5975.3972099665389 4283.3058476376691 0 0 -1 0 
1 5957.8972099665389 4278.6058476376702 0 0 0 1 
1 5975.3972099665389 4278.6058476376702 0 -1 0 0 
1 5975.3972099665389 4278.6058476376702 0 -1 0 0 
1 5945.897209966538 4266.6058476376702 0 0 0 1 
1 5957.8972099665389 4278.6058476376702 0 -0.70710678118657433 -0.70710678118652071 0 
1 5957.8972099665389 4278.6058476376702 0 -0.70710678118657433 -0.70710678118652071 0 
1 5945.897209966538 4226.097821926136 0 0 0 1 
1 5945.897209966538 4266.6058476376702 0 0 -1 0 
1 5945.897209966538 4266.6058476376702 0 0 -1 0 
1 5987.4487175122049 4183.0699762789009 0 0 0 1 
1 5945.897209966538 4226.097821926136 0 0.69465837045899403 -0.71933980033865441 0 
1 5945.897209966538 4226.097821926136 0 0.69465837045899403 -0.71933980033865441 0 
1 5988.9787562349902 4180.2523510443771 0 0 0 1 
2 5983.1326787101689 4178.9020260561419 0 0 0 1 1 0 -0 -0 1 0 6.0000000000061133
2 5983.1326787101689 4178.9020260561419 0 0 0 1 1 0 -0 -0 1 0 6.0000000000061133
1 5994.8217381262948 4174.2017661730033 0 0 0 1 
1 5988.9787562349902 4180.2523510443771 0 0.69465837045908641 -0.71933980033856515 0 
1 5988.9787562349902 4180.2523510443771 0 0.69465837045908641 -0.71933980033856515 0 
2 5995.3972099665652 4174.7574928693703 0 0 0 1 1 0 -0 -0 1 0 0.79999999999947813
2 5995.3972099665652 4174.7574928693703 0 0 0 1 1 0 -0 -0 1 0 0.79999999999947813
Polygon3D 0
PolygonOnTriangulations 0
Surfaces 28
1 5995.9726818068357 4174.2017661730033 0 -0.71933980033895517 0.69465837045868251 0 0.69465837045868251 0.71933980033895517 0 0 0 -1 
2 5995.3972099665652 4174.7574928693703 0 -0 -0 -1 1 0 0 -0 1 -0 0.79999999999947813
1 6001.6794702186417 4180.1113185678223 0 -0.86602540378442727 -0.50000000000001987 0 -0.50000000000001987 0.86602540378442727 0 -0 0 -1 
2 5994.3617007177527 4232.7860671414428 0 -0 -0 -1 1 0 0 -0 1 -0 20.000000000002736
1 5980.2195650940257 4246.9282027651816 0 -0.7071067811862064 0.70710678118688874 0 0.70710678118688874 0.7071067811862064 0 0 0 -1 
1 6001.897209966537 4268.605847637672 0 -1 0 0 0 1 0 0 0 -1 
1 6001.897209966537 4277.6058476376702 0 -0.70710678118815529 -0.70710678118493975 0 -0.70710678118493975 0.70710678118815529 0 -0 0 -1 
1 6000.8972099665416 4278.6058476376702 0 0 -1 0 -1 0 0 -0 -0 -1 
1 5990.3579794819962 4278.6058476376702 0 0.50000000000069111 -0.86602540378403969 0 -0.86602540378403969 -0.50000000000069111 0 0 -0 -1 
2 5988.9972099665383 4279.2058476376706 0 -0 -0 -1 1 0 0 -0 1 -0 1.2000000000001405
1 5987.9579794819965 4279.80584763767 0 -0.86602540378410897 0.50000000000057099 0 0.50000000000057099 0.86602540378410897 0 0 0 -1 
1 5988.3972099665389 4280.5666171531293 0 -1 0 0 0 1 0 0 0 -1 
1 5988.3972099665389 4307.6058476376693 0 -0.70710678118686909 -0.70710678118622605 0 -0.70710678118622605 0.70710678118686909 0 -0 0 -1 
1 5987.397209966538 4308.6058476376711 0 0 -1 0 -1 0 0 -0 -0 -1 
1 5976.397209966538 4308.6058476376711 0 0.70710678118751213 -0.7071067811855829 0 -0.7071067811855829 -0.70710678118751213 0 0 -0 -1 
1 5975.3972099665389 4307.6058476376693 0 1 0 0 0 -1 0 0 0 -1 
1 5975.3972099665389 4291.6058476376702 0 0 1 0 1 0 0 0 0 -1 
1 5978.3972099665389 4291.6058476376702 0 1 0 0 0 -1 0 0 0 -1 
1 5978.3972099665389 4283.3058476376691 0 0 -1 0 -1 0 0 -0 -0 -1 
1 5975.3972099665389 4283.3058476376691 0 1 0 0 0 -1 0 0 0 -1 
1 5975.3972099665389 4278.6058476376702 0 0 -1 0 -1 0 0 -0 -0 -1 
1 5957.8972099665389 4278.6058476376702 0 0.70710678118652071 -0.70710678118657433 0 -0.70710678118657433 -0.70710678118652071 0 0 -0 -1 
1 5945.897209966538 4266.6058476376702 0 1 0 0 0 -1 0 0 0 -1 
1 5945.897209966538 4226.097821926136 0 0.71933980033865441 0.69465837045899403 0 0.69465837045899403 -0.71933980033865441 0 0 0 -1 
2 5983.1326787101689 4178.9020260561419 0 -0 -0 -1 1 0 0 -0 1 -0 6.0000000000061133
1 5988.9787562349902 4180.2523510443771 0 0.71933980033856515 0.69465837045908641 0 0.69465837045908641 -0.71933980033856515 0 0 0 -1 
1 5976.3507321214356 4244.8160675119288 0 0 0 1 1 0 -0 -0 1 0 
1 5976.3507321214356 4244.8160675119288 0 0 0 1 1 0 -0 -0 1 0 
Triangulations 0

TShapes 188
Ve
1e-07
5995.97268180684 4174.201766173 0
0 0

0101101
*
Ve
1e-07
5995.97268180684 4174.201766173 100
0 0

0101101
*
Ed
 1e-07 1 1 0
1  1 0 0 100
2  1 2 0 0 100
4 G1 1 0 2 0
0

0101000
+188 3 -187 3 *
Ve
1e-07
6001.67947021864 4180.11131856782 0
0 0

0101101
*
Ve
1e-07
6001.67947021864 4180.11131856782 100
0 0

0101101
*
Ed
 1e-07 1 1 0
1  2 0 0 100
0

0101000
+185 3 -184 3 *
Ed
 1e-07 1 1 0
1  3 0 0 8.21524457847933
0

0101000
+188 8 -185 8 *
Ed
 1e-07 1 1 0
1  4 0 0 8.21524457847933
0

0101000
+187 11 -184 11 *
Wi

0101100
+186 0 -183 0 -182 7 +181 10 *
Fa
0  1e-07 1 0

0111000
+180 0 *
Ve
1e-07
5977.04119264206 4222.78606714144 0
0 0

0101101
*
Ve
1e-07
5977.04119264206 4222.78606714144 100
0 0

0101101
*
Ed
 1e-07 1 1 0
1  5 0 0 100
2  2 4 0 0 100
4 G1 3 0 4 0
0

0101000
+178 3 -177 3 *
Ed
 1e-07 1 1 0
1  6 0 0 49.2765551531573
0

0101000
+185 8 -178 8 *
Ed
 1e-07 1 1 0
1  7 0 0 49.2765551531573
0

0101000
+184 11 -177 11 *
Wi

0101100
+183 0 -176 0 -175 7 +174 10 *
Fa
0  1e-07 3 0

0111000
+173 0 *
Ve
1e-07
5980.21956509403 4246.92820276518 0
0 0

0101101
*
Ve
1e-07
5980.21956509403 4246.92820276518 100
0 0

0101101
*
Ed
 1e-07 1 1 0
1  8 0 0 100
2  3 4 0 0 100
4 G1 4 0 5 0
0

0101000
+171 3 -170 3 *
Ed
 1e-07 1 1 0
1  9 0 2.35619449019193 3.66519142918812
2  4 4 12 2.35619449019193 3.66519142918812
0

0101000
+171 8 -178 8 *
Ed
 1e-07 1 1 0
1  10 0 2.35619449019193 3.66519142918812
2  5 4 13 2.35619449019193 3.66519142918812
0

0101000
+170 11 -177 11 *
Wi

0101100
+169 0 -176 0 -168 7 +167 10 *
Fa
0  1e-07 4 0

0111000
+166 0 *
Ve
1e-07
6001.89720996654 4268.60584763767 0
0 0

0101101
*
Ve
1e-07
6001.89720996654 4268.60584763767 100
0 0

0101101
*
Ed
 1e-07 1 1 0
1  11 0 0 100
0

0101000
+164 3 -163 3 *
Ed
 1e-07 1 1 0
1  12 0 0 30.6568193789983
0

0101000
+171 8 -164 8 *
Ed
 1e-07 1 1 0
1  13 0 0 30.6568193789983
0

0101000
+170 11 -163 11 *
Wi

0101100
+169 0 -162 0 -161 7 +160 10 *
Fa
0  1e-07 5 0

0111000
+159 0 *
Ve
1e-07
6001.89720996654 4277.60584763767 0
0 0

0101101
*
Ve
1e-07
6001.89720996654 4277.60584763767 100
0 0

0101101
*
Ed
 1e-07 1 1 0
1  14 0 0 100
0

0101000
+157 3 -156 3 *
Ed
 1e-07 1 1 0
1  15 0 0 8.99999999999818
0

0101000
+164 8 -157 8 *
Ed
 1e-07 1 1 0
1  16 0 0 8.99999999999818
0

0101000
+163 11 -156 11 *
Wi

0101100
+162 0 -155 0 -154 7 +153 10 *
Fa
0  1e-07 6 0

0111000
+152 0 *
Ve
1e-07
6000.89720996654 4278.60584763767 0
0 0

0101101
*
Ve
1e-07
6000.89720996654 4278.60584763767 100
0 0

0101101
*
Ed
 1e-07 1 1 0
1  17 0 0 100
0

0101000
+150 3 -149 3 *
Ed
 1e-07 1 1 0
1  18 0 0 1.41421356236988
0

0101000
+157 8 -150 8 *
Ed
 1e-07 1 1 0
1  19 0 0 1.41421356236988
0

0101000
+156 11 -149 11 *
Wi

0101100
+155 0 -148 0 -147 7 +146 10 *
Fa
0  1e-07 7 0

0111000
+145 0 *
Ve
1e-07
5990.357979482 4278.60584763767 0
0 0

0101101
*
Ve
1e-07
5990.357979482 4278.60584763767 100
0 0

0101101
*
Ed
 1e-07 1 1 0
1  20 0 0 100
0

0101000
+143 3 -142 3 *
Ed
 1e-07 1 1 0
1  21 0 0 10.5392304845454
0

0101000
+150 8 -143 8 *
Ed
 1e-07 1 1 0
1  22 0 0 10.5392304845454
0

0101000
+149 11 -142 11 *
Wi

0101100
+148 0 -141 0 -140 7 +139 10 *
Fa
0  1e-07 8 0

0111000
+138 0 *
Ve
1e-07
5989.59720996654 4278.16661715313 0
0 0

0101101
*
Ve
1e-07
5989.59720996654 4278.16661715313 100
0 0

0101101
*
Ed
 1e-07 1 1 0
1  23 0 0 100
2  6 10 0 0 100
4 G1 9 0 10 0
0

0101000
+136 3 -135 3 *
Ed
 1e-07 1 1 0
1  24 0 0 0.878460969081666
0

0101000
+143 8 -136 8 *
Ed
 1e-07 1 1 0
1  25 0 0 0.878460969081666
0

0101000
+142 11 -135 11 *
Wi

0101100
+141 0 -134 0 -133 7 +132 10 *
Fa
0  1e-07 9 0

0111000
+131 0 *
Ve
1e-07
5987.957979482 4279.80584763767 0
0 0

0101101
*
Ve
1e-07
5987.957979482 4279.80584763767 100
0 0

0101101
*
Ed
 1e-07 1 1 0
1  26 0 0 100
2  7 10 0 0 100
4 G1 10 0 11 0
0

0101000
+129 3 -128 3 *
Ed
 1e-07 1 1 0
1  27 0 2.61799387799209 5.23598775598305
2  8 10 12 2.61799387799209 5.23598775598305
0

0101000
+129 8 -136 8 *
Ed
 1e-07 1 1 0
1  28 0 2.61799387799209 5.23598775598305
2  9 10 13 2.61799387799209 5.23598775598305
0

0101000
+128 11 -135 11 *
Wi

0101100
+127 0 -134 0 -126 7 +125 10 *
Fa
0  1e-07 10 0

0111000
+124 0 *
Ve
1e-07
5988.39720996654 4280.56661715313 0
0 0

0101101
*
Ve
1e-07
5988.39720996654 4280.56661715313 100
0 0

0101101
*
Ed
 1e-07 1 1 0
1  29 0 0 100
0

0101000
+122 3 -121 3 *
Ed
 1e-07 1 1 0
1  30 0 0 0.878460969083696
0

0101000
+129 8 -122 8 *
Ed
 1e-07 1 1 0
1  31 0 0 0.878460969083696
0

0101000
+128 11 -121 11 *
Wi

0101100
+127 0 -120 0 -119 7 +118 10 *
Fa
0  1e-07 11 0

0111000
+117 0 *
Ve
1e-07
5988.39720996654 4307.60584763767 0
0 0

0101101
*
Ve
1e-07
5988.39720996654 4307.60584763767 100
0 0

0101101
*
Ed
 1e-07 1 1 0
1  32 0 0 100
0

0101000
+115 3 -114 3 *
Ed
 1e-07 1 1 0
1  33 0 0 27.03923048454
0

0101000
+122 8 -115 8 *
Ed
 1e-07 1 1 0
1  34 0 0 27.03923048454
0

0101000
+121 11 -114 11 *
Wi

0101100
+120 0 -113 0 -112 7 +111 10 *
Fa
0  1e-07 12 0

0111000
+110 0 *
Ve
1e-07
5987.39720996654 4308.60584763767 0
0 0

0101101
*
Ve
1e-07
5987.39720996654 4308.60584763767 100
0 0

0101101
*
Ed
 1e-07 1 1 0
1  35 0 0 100
0

0101000
+108 3 -107 3 *
Ed
 1e-07 1 1 0
1  36 0 0 1.41421356237502
0

0101000
+115 8 -108 8 *
Ed
 1e-07 1 1 0
1  37 0 0 1.41421356237502
0

0101000
+114 11 -107 11 *
Wi

0101100
+113 0 -106 0 -105 7 +104 10 *
Fa
0  1e-07 13 0

0111000
+103 0 *
Ve
1e-07
5976.39720996654 4308.60584763767 0
0 0

0101101
*
Ve
1e-07
5976.39720996654 4308.60584763767 100
0 0

0101101
*
Ed
 1e-07 1 1 0
1  38 0 0 100
0

0101000
+101 3 -100 3 *
Ed
 1e-07 1 1 0
1  39 0 0 11
0

0101000
+108 8 -101 8 *
Ed
 1e-07 1 1 0
1  40 0 0 11
0

0101000
+107 11 -100 11 *
Wi

0101100
+106 0 -99 0 -98 7 +97 10 *
Fa
0  1e-07 14 0

0111000
+96 0 *
Ve
1e-07
5975.39720996654 4307.60584763767 0
0 0

0101101
*
Ve
1e-07
5975.39720996654 4307.60584763767 100
0 0

0101101
*
Ed
 1e-07 1 1 0
1  41 0 0 100
0

0101000
+94 3 -93 3 *
Ed
 1e-07 1 1 0
1  42 0 0 1.41421356237374
0

0101000
+101 8 -94 8 *
Ed
 1e-07 1 1 0
1  43 0 0 1.41421356237374
0

0101000
+100 11 -93 11 *
Wi

0101100
+99 0 -92 0 -91 7 +90 10 *
Fa
0  1e-07 15 0

0111000
+89 0 *
Ve
1e-07
5975.39720996654 4291.60584763767 0
0 0

0101101
*
Ve
1e-07
5975.39720996654 4291.60584763767 100
0 0

0101101
*
Ed
 1e-07 1 1 0
1  44 0 0 100
0

0101000
+87 3 -86 3 *
Ed
 1e-07 1 1 0
1  45 0 0 15.9999999999991
0

0101000
+94 8 -87 8 *
Ed
 1e-07 1 1 0
1  46 0 0 15.9999999999991
0

0101000
+93 11 -86 11 *
Wi

0101100
+92 0 -85 0 -84 7 +83 10 *
Fa
0  1e-07 16 0

0111000
+82 0 *
Ve
1e-07
5978.39720996654 4291.60584763767 0
0 0

0101101
*
Ve
1e-07
5978.39720996654 4291.60584763767 100
0 0

0101101
*
Ed
 1e-07 1 1 0
1  47 0 0 100
0

0101000
+80 3 -79 3 *
Ed
 1e-07 1 1 0
1  48 0 0 3
0

0101000
+87 8 -80 8 *
Ed
 1e-07 1 1 0
1  49 0 0 3
0

0101000
+86 11 -79 11 *
Wi

0101100
+85 0 -78 0 -77 7 +76 10 *
Fa
0  1e-07 17 0

0111000
+75 0 *
Ve
1e-07
5978.39720996654 4283.30584763767 0
0 0

0101101
*
Ve
1e-07
5978.39720996654 4283.30584763767 100
0 0

0101101
*
Ed
 1e-07 1 1 0
1  50 0 0 100
0

0101000
+73 3 -72 3 *
Ed
 1e-07 1 1 0
1  51 0 0 8.30000000000109
0

0101000
+80 8 -73 8 *
Ed
 1e-07 1 1 0
1  52 0 0 8.30000000000109
0

0101000
+79 11 -72 11 *
Wi

0101100
+78 0 -71 0 -70 7 +69 10 *
Fa
0  1e-07 18 0

0111000
+68 0 *
Ve
1e-07
5975.39720996654 4283.30584763767 0
0 0

0101101
*
Ve
1e-07
5975.39720996654 4283.30584763767 100
0 0

0101101
*
Ed
 1e-07 1 1 0
1  53 0 0 100
0

0101000
+66 3 -65 3 *
Ed
 1e-07 1 1 0
1  54 0 0 3
0

0101000
+73 8 -66 8 *
Ed
 1e-07 1 1 0
1  55 0 0 3
0

0101000
+72 11 -65 11 *
Wi

0101100
+71 0 -64 0 -63 7 +62 10 *
Fa
0  1e-07 19 0

0111000
+61 0 *
Ve
1e-07
5975.39720996654 4278.60584763767 0
0 0

0101101
*
Ve
1e-07
5975.39720996654 4278.60584763767 100
0 0

0101101
*
Ed
 1e-07 1 1 0
1  56 0 0 100
0

0101000
+59 3 -58 3 *
Ed
 1e-07 1 1 0
1  57 0 0 4.69999999999891
0

0101000
+66 8 -59 8 *
Ed
 1e-07 1 1 0
1  58 0 0 4.69999999999891
0

0101000
+65 11 -58 11 *
Wi

0101100
+64 0 -57 0 -56 7 +55 10 *
Fa
0  1e-07 20 0

0111000
+54 0 *
Ve
1e-07
5957.89720996654 4278.60584763767 0
0 0

0101101
*
Ve
1e-07
5957.89720996654 4278.60584763767 100
0 0

0101101
*
Ed
 1e-07 1 1 0
1  59 0 0 100
0

0101000
+52 3 -51 3 *
Ed
 1e-07 1 1 0
1  60 0 0 17.5
0

0101000
+59 8 -52 8 *
Ed
 1e-07 1 1 0
1  61 0 0 17.5
0

0101000
+58 11 -51 11 *
Wi

0101100
+57 0 -50 0 -49 7 +48 10 *
Fa
0  1e-07 21 0

0111000
+47 0 *
Ve
1e-07
5945.89720996654 4266.60584763767 0
0 0

0101101
*
Ve
1e-07
5945.89720996654 4266.60584763767 100
0 0

0101101
*
Ed
 1e-07 1 1 0
1  62 0 0 100
0

0101000
+45 3 -44 3 *
Ed
 1e-07 1 1 0
1  63 0 0 16.9705627484778
0

0101000
+52 8 -45 8 *
Ed
 1e-07 1 1 0
1  64 0 0 16.9705627484778
0

0101000
+51 11 -44 11 *
Wi

0101100
+50 0 -43 0 -42 7 +41 10 *
Fa
0  1e-07 22 0

0111000
+40 0 *
Ve
1e-07
5945.89720996654 4226.09782192614 0
0 0

0101101
*
Ve
1e-07
5945.89720996654 4226.09782192614 100
0 0

0101101
*
Ed
 1e-07 1 1 0
1  65 0 0 100
0

0101000
+38 3 -37 3 *
Ed
 1e-07 1 1 0
1  66 0 0 40.5080257115342
0

0101000
+45 8 -38 8 *
Ed
 1e-07 1 1 0
1  67 0 0 40.5080257115342
0

0101000
+44 11 -37 11 *
Wi

0101100
+43 0 -36 0 -35 7 +34 10 *
Fa
0  1e-07 23 0

0111000
+33 0 *
Ve
1.00000455e-07
5987.4487175122 4183.0699762789 0
0 0

0101101
*
Ve
1.00000455e-07
5987.4487175122 4183.0699762789 100
0 0

0101101
*
Ed
 1.00000455e-07 1 1 0
1  68 0 0 100
2  10 25 0 0 100
4 G1 24 0 25 0
0

0101000
+31 3 -30 3 *
Ed
 1e-07 1 1 0
1  69 0 0 59.8157444186715
0

0101000
+38 8 -31 8 *
Ed
 1e-07 1 1 0
1  70 0 0 59.8157444186715
0

0101000
+37 11 -30 11 *
Wi

0101100
+36 0 -29 0 -28 7 +27 10 *
Fa
0  1e-07 24 0

0111000
+26 0 *
Ve
1e-07
5988.97875623499 4180.25235104438 0
0 0

0101101
*
Ve
1e-07
5988.97875623499 4180.25235104438 100
0 0

0101101
*
Ed
 1e-07 1 1 0
1  71 0 0 100
2  11 25 0 0 100
0

0101000
+24 3 -23 3 *
Ed
 1e-07 1 1 0
1  72 0 0.22699862664 0.767944870877621
2  12 25 12 0.22699862664 0.767944870877621
0

0101000
+24 8 -31 8 *
Ed
 1e-07 1 1 0
1  73 0 0.22699862664 0.767944870877621
2  13 25 13 0.22699862664 0.767944870877621
0

0101000
+23 11 -30 11 *
Wi

0101100
+22 0 -29 0 -21 7 +20 10 *
Fa
0  1e-07 25 0

0111000
+19 0 *
Ve
1e-07
5994.82173812629 4174.201766173 0
0 0

0101101
*
Ve
1e-07
5994.82173812629 4174.201766173 100
0 0

0101101
*
Ed
 1e-07 1 1 0
1  74 0 0 100
2  14 2 0 0 100
4 G1 26 0 2 0
0

0101000
+17 3 -16 3 *
Ed
 1e-07 1 1 0
1  75 0 0 8.41130279254114
0

0101000
+24 8 -17 8 *
Ed
 1e-07 1 1 0
1  76 0 0 8.41130279254114
0

0101000
+23 11 -16 11 *
Wi

0101100
+22 0 -15 0 -14 7 +13 10 *
Fa
0  1e-07 26 0

0111000
+12 0 *
Ed
 1e-07 1 1 0
1  77 0 3.90953752446749 5.51524043630189
2  15 2 12 3.90953752446749 5.51524043630189
0

0101000
+17 8 -188 8 *
Ed
 1e-07 1 1 0
1  78 0 3.90953752446749 5.51524043630189
2  16 2 13 3.90953752446749 5.51524043630189
0

0101000
+16 11 -187 11 *
Wi

0101100
+15 0 -186 0 -10 7 +9 10 *
Fa
0  1e-07 2 0

0111000
+8 0 *
Wi

0101100
+182 0 +175 0 -168 0 +161 0 +154 0 +147 0 +140 0 +133 0 -126 0 +119 0 
+112 0 +105 0 +98 0 +91 0 +84 0 +77 0 +70 0 +63 0 +56 0 +49 0 
+42 0 +35 0 +28 0 -21 0 +14 0 +10 0 *
Fa
0  1e-07 27 0

0111000
+6 15 *
Wi

0101100
+181 0 +174 0 -167 0 +160 0 +153 0 +146 0 +139 0 +132 0 -125 0 +118 0 
+111 0 +104 0 +97 0 +90 0 +83 0 +76 0 +69 0 +62 0 +55 0 +48 0 
+41 0 +34 0 +27 0 -20 0 +13 0 +9 0 *
Fa
0  1e-07 28 0

0111000
+4 15 *
Sh

0101100
+179 0 +172 0 -165 0 +158 0 +151 0 +144 0 +137 0 +130 0 -123 0 +116 0 
+109 0 +102 0 +95 0 +88 0 +81 0 +74 0 +67 0 +60 0 +53 0 +46 0 
+39 0 +32 0 +25 0 -18 0 +11 0 +7 0 +5 14 -3 16 *
So

1100000
-2 0 *

+1 1 