DBRep_DrawableShape

CASCADE Topology V1, (c) Matra-Datavision
Locations 16
1
              1               0               0       -12105.43 
              0               0              -1 0.015531235911496 
              0               1               0 -8483.78553123591 
1
              1               0               0               0 
              0               1               0               0 
              0               0               1               0 
2  2 -1 0
1
              1               0               0               0 
              0               1               0               0 
              0               0               1               0 
1
              1               0               0               0 
              0               1               0               0 
              0               0               1               0 
1
              1               0               0               0 
              0               1               0               0 
              0               0               1               0 
2  4 1 5 1 6 -1 0
2  6 1 5 -1 4 -1 0
2  2 -1 6 1 5 -1 4 -1 0
1
              1               0               0               0 
              0               1               0               0 
              0               0               1             100 
2  4 1 5 1 6 -1 10 1 0
2  10 -1 6 1 5 -1 4 -1 0
2  2 -1 10 -1 6 1 5 -1 4 -1 0
2  6 -1 0
2  4 1 5 1 0
2  6 -1 10 1 0
Curve2ds 16
1 2.83616 0 0 -1 
1 3.4218459999999999 0 0 -1 
1 0 0 1 0 
1 0 -100 1 0 
1 5.9777529999999999 0 0 -1 
1 4.7123889999999999 0 0 -1 
1 0 0 1 0 
1 0 -100 1 0 
1 4.7123889999999999 0 0 -1 
1 3.447025 0 0 -1 
1 0 0 1 0 
1 0 -100 1 0 
1 4.18879 0 0 -1 
1 6.8067837158481588 0 0 -1 
1 0 0 1 0 
1 0 -100 1 0 
Curves 81
1 12110.55430335774 8497.8358849943925 0 0 0 1 
1 12110.510692637454 8494.3720552821724 0 0 0 1 
2 12116.276604999999 8496.0316500000008 0 0 0 1 1 0 -0 -0 1 0 6
2 12116.276604999999 8496.0316500000008 0 0 0 1 1 0 -0 -0 1 0 6
1 12105.847356113363 8479.5818463493943 0 0 0 1 
1 12105.847356113363 8479.5818463493943 0 0.30070589102035356 0.95371692189331281 0 
1 12105.847356113363 8479.5818463493943 0 0.30070589102035356 0.95371692189331281 0 
1 12105.561241005884 8479.3720580000008 0 0 0 1 
2 12105.561240999999 8479.6720580000001 0 0 0 1 1 0 -0 -0 1 0 0.29999999999999999
2 12105.561240999999 8479.6720580000001 0 0 0 1 1 0 -0 -0 1 0 0.29999999999999999
1 12105.201179005884 8479.3720580000008 0 0 0 1 
1 12105.201179005884 8479.3720580000008 0 1 0 0 
1 12105.201179005884 8479.3720580000008 0 1 0 0 
1 12104.915063890176 8479.5818463381693 0 0 0 1 
2 12105.201179 8479.6720580000001 0 0 0 1 1 0 -0 -0 1 0 0.29999999999999999
2 12105.201179 8479.6720580000001 0 0 0 1 1 0 -0 -0 1 0 0.29999999999999999
1 12100.251727999999 8494.3720580000008 0 0 0 1 
1 12100.251727999999 8494.3720580000008 0 0.30070580337162173 -0.95371694952885666 0 
1 12100.251727999999 8494.3720580000008 0 0.30070580337162173 -0.95371694952885666 0 
1 12104.781209999999 8515.6815939999997 0 0 0 1 
1 12104.781209999999 8515.6815939999997 0 -0.20791170386379018 -0.9781475979607861 0 
1 12104.781209999999 8515.6815939999997 0 -0.20791170386379018 -0.9781475979607861 0 
1 12104.781209999999 8536.2189830000007 0 0 0 1 
1 12104.781209999999 8536.2189830000007 0 0 -1 0 
1 12104.781209999999 8536.2189830000007 0 0 -1 0 
1 12099.38121 8556.3720580000008 0 0 0 1 
1 12099.38121 8556.3720580000008 0 0.25881903744423812 -0.96592582834109897 0 
1 12099.38121 8556.3720580000008 0 0.25881903744423812 -0.96592582834109897 0 
1 12099.38121 8568.3720580000008 0 0 0 1 
1 12099.38121 8568.3720580000008 0 0 -1 0 
1 12099.38121 8568.3720580000008 0 0 -1 0 
1 12100.38121 8569.3720580000008 0 0 0 1 
1 12100.38121 8569.3720580000008 0 -0.70710678118654757 -0.70710678118654757 0 
1 12100.38121 8569.3720580000008 0 -0.70710678118654757 -0.70710678118654757 0 
1 12110.42044 8569.3720580000008 0 0 0 1 
1 12110.42044 8569.3720580000008 0 -1 0 0 
1 12110.42044 8569.3720580000008 0 -1 0 0 
1 12111.181208787182 8568.9328276383294 0 0 0 1 
1 12111.181208787182 8568.9328276383294 0 -0.86602525709038547 0.5000002540814672 0 
1 12111.181208787182 8568.9328276383294 0 -0.86602525709038547 0.5000002540814672 0 
1 12112.82044 8570.5720579139743 0 0 0 1 
2 12111.781209108089 8569.9720581872116 0 0 0 1 1 0 -0 -0 1 0 1.2000002161740966
2 12111.781209108089 8569.9720581872116 0 0 0 1 1 0 -0 -0 1 0 1.2000002161740966
1 12112.38121 8571.3328270000002 0 0 0 1 
1 12112.38121 8571.3328270000002 0 0.49999979799179656 -0.86602552041389791 0 
1 12112.38121 8571.3328270000002 0 0.49999979799179656 -0.86602552041389791 0 
1 12112.38121 8598.3720580000008 0 0 0 1 
1 12112.38121 8598.3720580000008 0 0 -1 0 
1 12112.38121 8598.3720580000008 0 0 -1 0 
1 12113.38121 8599.3720580000008 0 0 0 1 
1 12113.38121 8599.3720580000008 0 -0.70710678118654757 -0.70710678118654757 0 
1 12113.38121 8599.3720580000008 0 -0.70710678118654757 -0.70710678118654757 0 
1 12124.38121 8599.3720580000008 0 0 0 1 
1 12124.38121 8599.3720580000008 0 -1 0 0 
1 12124.38121 8599.3720580000008 0 -1 0 0 
1 12125.38121 8598.3720580000008 0 0 0 1 
1 12125.38121 8598.3720580000008 0 -0.70710678118654757 0.70710678118654757 0 
1 12125.38121 8598.3720580000008 0 -0.70710678118654757 0.70710678118654757 0 
1 12125.38121 8582.8720580000008 0 0 0 1 
1 12125.38121 8582.8720580000008 0 0 1 0 
1 12125.38121 8582.8720580000008 0 0 1 0 
1 12124.88121 8582.3720580000008 0 0 0 1 
1 12124.88121 8582.3720580000008 0 0.70710678118654757 0.70710678118654757 0 
1 12124.88121 8582.3720580000008 0 0.70710678118654757 0.70710678118654757 0 
1 12122.38121 8582.3720580000008 0 0 0 1 
1 12122.38121 8582.3720580000008 0 1 0 0 
1 12122.38121 8582.3720580000008 0 1 0 0 
1 12122.38121 8573.9720579999994 0 0 0 1 
1 12122.38121 8573.9720579999994 0 0 1 0 
1 12122.38121 8573.9720579999994 0 0 1 0 
1 12124.88121 8573.9720579999994 0 0 0 1 
1 12124.88121 8573.9720579999994 0 -1 0 0 
1 12124.88121 8573.9720579999994 0 -1 0 0 
1 12125.38121 8573.4720579999994 0 0 0 1 
1 12125.38121 8573.4720579999994 0 -0.70710678118654757 0.70710678118654757 0 
1 12125.38121 8573.4720579999994 0 -0.70710678118654757 0.70710678118654757 0 
1 12125.38121 8544.8608249999997 0 0 0 1 
1 12125.38121 8544.8608249999997 0 0 1 0 
1 12125.38121 8544.8608249999997 0 0 1 0 
1 12110.55430335774 8497.8358849943925 0 0.30070579971429617 0.95371695068200701 0 
1 12110.55430335774 8497.8358849943925 0 0.30070579971429617 0.95371695068200701 0 
Polygon3D 0
PolygonOnTriangulations 0
Surfaces 29
2 12116.276604999999 8496.0316500000008 0 -0 -0 -1 1 0 0 -0 1 -0 6
1 12110.55430335774 8497.8358849943925 0 -0.95371695068200701 0.30070579971429617 0 0.30070579971429617 0.95371695068200701 0 0 0 -1 
1 12105.847356113363 8479.5818463493943 0 -0.95371692189331281 0.30070589102035356 0 0.30070589102035356 0.95371692189331281 0 0 0 -1 
2 12105.561240999999 8479.6720580000001 0 -0 -0 -1 1 0 0 -0 1 -0 0.29999999999999999
1 12105.201179005884 8479.3720580000008 0 0 1 0 1 0 0 0 0 -1 
2 12105.201179 8479.6720580000001 0 -0 -0 -1 1 0 0 -0 1 -0 0.29999999999999999
1 12100.251727999999 8494.3720580000008 0 0.95371694952885666 0.30070580337162173 0 0.30070580337162173 -0.95371694952885666 0 0 0 -1 
1 12104.781209999999 8515.6815939999997 0 0.9781475979607861 -0.20791170386379018 0 -0.20791170386379018 -0.9781475979607861 0 0 -0 -1 
1 12104.781209999999 8536.2189830000007 0 1 0 0 0 -1 0 0 0 -1 
1 12099.38121 8556.3720580000008 0 0.96592582834109897 0.25881903744423812 0 0.25881903744423812 -0.96592582834109897 0 0 0 -1 
1 12099.38121 8568.3720580000008 0 1 0 0 0 -1 0 0 0 -1 
1 12100.38121 8569.3720580000008 0 0.70710678118654757 -0.70710678118654757 0 -0.70710678118654757 -0.70710678118654757 0 0 -0 -1 
1 12110.42044 8569.3720580000008 0 0 -1 0 -1 0 0 -0 -0 -1 
1 12111.181208787182 8568.9328276383294 0 -0.5000002540814672 -0.86602525709038547 0 -0.86602525709038547 0.5000002540814672 0 -0 0 -1 
2 12111.781209108089 8569.9720581872116 0 -0 -0 -1 1 0 0 -0 1 -0 1.2000002161740966
1 12112.38121 8571.3328270000002 0 0.86602552041389791 0.49999979799179656 0 0.49999979799179656 -0.86602552041389791 0 0 0 -1 
1 12112.38121 8598.3720580000008 0 1 0 0 0 -1 0 0 0 -1 
1 12113.38121 8599.3720580000008 0 0.70710678118654757 -0.70710678118654757 0 -0.70710678118654757 -0.70710678118654757 0 0 -0 -1 
1 12124.38121 8599.3720580000008 0 0 -1 0 -1 0 0 -0 -0 -1 
1 12125.38121 8598.3720580000008 0 -0.70710678118654757 -0.70710678118654757 0 -0.70710678118654757 0.70710678118654757 0 -0 0 -1 
1 12125.38121 8582.8720580000008 0 -1 0 0 0 1 0 0 0 -1 
1 12124.88121 8582.3720580000008 0 -0.70710678118654757 0.70710678118654757 0 0.70710678118654757 0.70710678118654757 0 0 0 -1 
1 12122.38121 8582.3720580000008 0 0 1 0 1 0 0 0 0 -1 
1 12122.38121 8573.9720579999994 0 -1 0 0 0 1 0 0 0 -1 
1 12124.88121 8573.9720579999994 0 0 -1 0 -1 0 0 -0 -0 -1 
1 12125.38121 8573.4720579999994 0 -0.70710678118654757 -0.70710678118654757 0 -0.70710678118654757 0.70710678118654757 0 -0 0 -1 
1 12125.38121 8544.8608249999997 0 -1 0 0 0 1 0 0 0 -1 
1 12112.505251333794 8543.521231613393 0 0 0 1 1 0 -0 -0 1 0 
1 12112.505251333794 8543.521231613393 0 0 0 1 1 0 -0 -0 1 0 
Triangulations 0

TShapes 195
Ve
1e-07
12110.5543033577 8497.83588499439 0
0 0

0101101
*
Ve
1e-07
12110.5543033577 8497.83588499439 100
0 0

0101101
*
Ed
 1e-07 1 1 0
1  1 0 0 100
2  1 1 0 0 100
4 G1 1 0 2 0
0

0101000
+195 3 -194 3 *
Ve
1e-07
12110.5106926375 8494.37205528217 0
0 0

0101101
*
Ve
1e-07
12110.5106926375 8494.37205528217 100
0 0

0101101
*
Ed
 1e-07 1 1 0
1  2 0 0 100
2  2 1 0 0 100
0

0101000
+192 3 -191 3 *
Ed
 1e-07 1 1 0
1  3 0 2.83616 3.421846
2  3 1 8 2.83616 3.421846
0

0101000
+195 9 -192 9 *
Ed
 1e-07 1 1 0
1  4 0 2.83616 3.421846
2  4 1 12 2.83616 3.421846
0

0101000
+194 13 -191 13 *
Wi

0101100
+193 0 -190 0 -189 7 +188 11 *
Fa
0  1e-07 1 0

0111000
+187 0 *
Ve
1e-07
12105.8473561134 8479.58184634939 0
0 0

0101101
*
Ve
1e-07
12105.8473561134 8479.58184634939 100
0 0

0101101
*
Ed
 1e-07 1 1 0
1  5 0 0 100
2  5 4 0 0 100
4 G1 3 0 4 0
0

0101000
+185 3 -184 3 *
Ed
 1e-07 1 1 0
1  6 0 0 15.5079653021325
0

0101000
+185 9 -192 9 *
Ed
 1e-07 1 1 0
1  7 0 0 15.5079653021325
0

0101000
+184 13 -191 13 *
Wi

0101100
+183 0 -190 0 -182 7 +181 11 *
Fa
0  1e-07 3 0

0111000
+180 0 *
Ve
1e-07
12105.5612410059 8479.372058 0
0 0

0101101
*
Ve
1e-07
12105.5612410059 8479.372058 100
0 0

0101101
*
Ed
 1e-07 1 1 0
1  8 0 0 100
2  6 4 0 0 100
4 G1 4 0 5 0
0

0101000
+178 3 -177 3 *
Ed
 1e-07 1 1 0
1  9 0 4.712389 5.977753
2  7 4 8 4.712389 5.977753
0

0101000
+178 9 -185 9 *
Ed
 1e-07 1 1 0
1  10 0 4.712389 5.977753
2  8 4 12 4.712389 5.977753
0

0101000
+177 13 -184 13 *
Wi

0101100
+176 0 -183 0 -175 7 +174 11 *
Fa
0  1e-07 4 0

0111000
+173 0 *
Ve
1e-07
12105.2011790059 8479.372058 0
0 0

0101101
*
Ve
1e-07
12105.2011790059 8479.372058 100
0 0

0101101
*
Ed
 1e-07 1 1 0
1  11 0 0 100
2  9 6 0 0 100
4 G1 5 0 6 0
0

0101000
+171 3 -170 3 *
Ed
 1e-07 1 1 0
1  12 0 0 0.360061999999743
0

0101000
+171 9 -178 9 *
Ed
 1e-07 1 1 0
1  13 0 0 0.360061999999743
0

0101000
+170 13 -177 13 *
Wi

0101100
+169 0 -176 0 -168 7 +167 11 *
Fa
0  1e-07 5 0

0111000
+166 0 *
Ve
1e-07
12104.9150638902 8479.58184633817 0
0 0

0101101
*
Ve
1e-07
12104.9150638902 8479.58184633817 100
0 0

0101101
*
Ed
 1e-07 1 1 0
1  14 0 0 100
2  10 6 0 0 100
4 G1 6 0 7 0
0

0101000
+164 3 -163 3 *
Ed
 1e-07 1 1 0
1  15 0 3.447025 4.712389
2  11 6 8 3.447025 4.712389
0

0101000
+164 9 -171 9 *
Ed
 1e-07 1 1 0
1  16 0 3.447025 4.712389
2  12 6 12 3.447025 4.712389
0

0101000
+163 13 -170 13 *
Wi

0101100
+162 0 -169 0 -161 7 +160 11 *
Fa
0  1e-07 6 0

0111000
+159 0 *
Ve
1e-07
12100.251728 8494.372058 0
0 0

0101101
*
Ve
1e-07
12100.251728 8494.372058 100
0 0

0101101
*
Ed
 1e-07 1 1 0
1  17 0 0 100
0

0101000
+157 3 -156 3 *
Ed
 1e-07 1 1 0
1  18 0 0 15.5079677142553
0

0101000
+157 9 -164 9 *
Ed
 1e-07 1 1 0
1  19 0 0 15.5079677142553
0

0101000
+156 13 -163 13 *
Wi

0101100
+155 0 -162 0 -154 7 +153 11 *
Fa
0  1e-07 7 0

0111000
+152 0 *
Ve
1e-07
12104.78121 8515.681594 0
0 0

0101101
*
Ve
1e-07
12104.78121 8515.681594 100
0 0

0101101
*
Ed
 1e-07 1 1 0
1  20 0 0 100
0

0101000
+150 3 -149 3 *
Ed
 1e-07 1 1 0
1  21 0 0 21.7856037722981
0

0101000
+150 9 -157 9 *
Ed
 1e-07 1 1 0
1  22 0 0 21.7856037722981
0

0101000
+149 13 -156 13 *
Wi

0101100
+148 0 -155 0 -147 7 +146 11 *
Fa
0  1e-07 8 0

0111000
+145 0 *
Ve
1e-07
12104.78121 8536.218983 0
0 0

0101101
*
Ve
1e-07
12104.78121 8536.218983 100
0 0

0101101
*
Ed
 1e-07 1 1 0
1  23 0 0 100
0

0101000
+143 3 -142 3 *
Ed
 1e-07 1 1 0
1  24 0 0 20.537389000001
0

0101000
+143 9 -150 9 *
Ed
 1e-07 1 1 0
1  25 0 0 20.537389000001
0

0101000
+142 13 -149 13 *
Wi

0101100
+141 0 -148 0 -140 7 +139 11 *
Fa
0  1e-07 9 0

0111000
+138 0 *
Ve
1e-07
12099.38121 8556.372058 0
0 0

0101101
*
Ve
1e-07
12099.38121 8556.372058 100
0 0

0101101
*
Ed
 1e-07 1 1 0
1  26 0 0 100
0

0101000
+136 3 -135 3 *
Ed
 1e-07 1 1 0
1  27 0 0 20.8639984651942
0

0101000
+136 9 -143 9 *
Ed
 1e-07 1 1 0
1  28 0 0 20.8639984651942
0

0101000
+135 13 -142 13 *
Wi

0101100
+134 0 -141 0 -133 7 +132 11 *
Fa
0  1e-07 10 0

0111000
+131 0 *
Ve
1e-07
12099.38121 8568.372058 0
0 0

0101101
*
Ve
1e-07
12099.38121 8568.372058 100
0 0

0101101
*
Ed
 1e-07 1 1 0
1  29 0 0 100
0

0101000
+129 3 -128 3 *
Ed
 1e-07 1 1 0
1  30 0 0 12
0

0101000
+129 9 -136 9 *
Ed
 1e-07 1 1 0
1  31 0 0 12
0

0101000
+128 13 -135 13 *
Wi

0101100
+127 0 -134 0 -126 7 +125 11 *
Fa
0  1e-07 11 0

0111000
+124 0 *
Ve
1e-07
12100.38121 8569.372058 0
0 0

0101101
*
Ve
1e-07
12100.38121 8569.372058 100
0 0

0101101
*
Ed
 1e-07 1 1 0
1  32 0 0 100
0

0101000
+122 3 -121 3 *
Ed
 1e-07 1 1 0
1  33 0 0 1.41421356237309
0

0101000
+122 9 -129 9 *
Ed
 1e-07 1 1 0
1  34 0 0 1.41421356237309
0

0101000
+121 13 -128 13 *
Wi

0101100
+120 0 -127 0 -119 7 +118 11 *
Fa
0  1e-07 12 0

0111000
+117 0 *
Ve
1e-07
12110.42044 8569.372058 0
0 0

0101101
*
Ve
1e-07
12110.42044 8569.372058 100
0 0

0101101
*
Ed
 1e-07 1 1 0
1  35 0 0 100
0

0101000
+115 3 -114 3 *
Ed
 1e-07 1 1 0
1  36 0 0 10.0392300000003
0

0101000
+115 9 -122 9 *
Ed
 1e-07 1 1 0
1  37 0 0 10.0392300000003
0

0101000
+114 13 -121 13 *
Wi

0101100
+113 0 -120 0 -112 7 +111 11 *
Fa
0  1e-07 13 0

0111000
+110 0 *
Ve
1e-07
12111.1812087872 8568.93282763833 0
0 0

0101101
*
Ve
1e-07
12111.1812087872 8568.93282763833 100
0 0

0101101
*
Ed
 1e-07 1 1 0
1  38 0 0 100
2  13 15 0 0 100
4 G1 14 0 15 0
0

0101000
+108 3 -107 3 *
Ed
 1e-07 1 1 0
1  39 0 0 0.878460276941917
0

0101000
+108 9 -115 9 *
Ed
 1e-07 1 1 0
1  40 0 0 0.878460276941917
0

0101000
+107 13 -114 13 *
Wi

0101100
+106 0 -113 0 -105 7 +104 11 *
Fa
0  1e-07 14 0

0111000
+103 0 *
Ve
1e-07
12112.82044 8570.57205791397 0
0 0

0101101
*
Ve
1e-07
12112.82044 8570.57205791397 100
0 0

0101101
*
Ed
 1e-07 1 1 0
1  41 0 0 100
2  14 15 0 0 100
4 G1 15 0 16 0
0

0101000
+101 3 -100 3 *
Ed
 1e-07 1 1 0
1  42 0 4.18879 6.80678371584816
2  15 15 8 4.18879 6.80678371584816
0

0101000
+108 9 -101 9 *
Ed
 1e-07 1 1 0
1  43 0 4.18879 6.80678371584816
2  16 15 12 4.18879 6.80678371584816
0

0101000
+107 13 -100 13 *
Wi

0101100
+106 0 -99 0 -98 7 +97 11 *
Fa
0  1e-07 15 0

0111000
+96 0 *
Ve
1e-07
12112.38121 8571.332827 0
0 0

0101101
*
Ve
1e-07
12112.38121 8571.332827 100
0 0

0101101
*
Ed
 1e-07 1 1 0
1  44 0 0 100
0

0101000
+94 3 -93 3 *
Ed
 1e-07 1 1 0
1  45 0 0 0.878460354912301
0

0101000
+94 9 -101 9 *
Ed
 1e-07 1 1 0
1  46 0 0 0.878460354912301
0

0101000
+93 13 -100 13 *
Wi

0101100
+92 0 -99 0 -91 7 +90 11 *
Fa
0  1e-07 16 0

0111000
+89 0 *
Ve
1e-07
12112.38121 8598.372058 0
0 0

0101101
*
Ve
1e-07
12112.38121 8598.372058 100
0 0

0101101
*
Ed
 1e-07 1 1 0
1  47 0 0 100
0

0101000
+87 3 -86 3 *
Ed
 1e-07 1 1 0
1  48 0 0 27.0392310000007
0

0101000
+87 9 -94 9 *
Ed
 1e-07 1 1 0
1  49 0 0 27.0392310000007
0

0101000
+86 13 -93 13 *
Wi

0101100
+85 0 -92 0 -84 7 +83 11 *
Fa
0  1e-07 17 0

0111000
+82 0 *
Ve
1e-07
12113.38121 8599.372058 0
0 0

0101101
*
Ve
1e-07
12113.38121 8599.372058 100
0 0

0101101
*
Ed
 1e-07 1 1 0
1  50 0 0 100
0

0101000
+80 3 -79 3 *
Ed
 1e-07 1 1 0
1  51 0 0 1.41421356237309
0

0101000
+80 9 -87 9 *
Ed
 1e-07 1 1 0
1  52 0 0 1.41421356237309
0

0101000
+79 13 -86 13 *
Wi

0101100
+78 0 -85 0 -77 7 +76 11 *
Fa
0  1e-07 18 0

0111000
+75 0 *
Ve
1e-07
12124.38121 8599.372058 0
0 0

0101101
*
Ve
1e-07
12124.38121 8599.372058 100
0 0

0101101
*
Ed
 1e-07 1 1 0
1  53 0 0 100
0

0101000
+73 3 -72 3 *
Ed
 1e-07 1 1 0
1  54 0 0 11
0

0101000
+73 9 -80 9 *
Ed
 1e-07 1 1 0
1  55 0 0 11
0

0101000
+72 13 -79 13 *
Wi

0101100
+71 0 -78 0 -70 7 +69 11 *
Fa
0  1e-07 19 0

0111000
+68 0 *
Ve
1e-07
12125.38121 8598.372058 0
0 0

0101101
*
Ve
1e-07
12125.38121 8598.372058 100
0 0

0101101
*
Ed
 1e-07 1 1 0
1  56 0 0 100
0

0101000
+66 3 -65 3 *
Ed
 1e-07 1 1 0
1  57 0 0 1.41421356237309
0

0101000
+66 9 -73 9 *
Ed
 1e-07 1 1 0
1  58 0 0 1.41421356237309
0

0101000
+65 13 -72 13 *
Wi

0101100
+64 0 -71 0 -63 7 +62 11 *
Fa
0  1e-07 20 0

0111000
+61 0 *
Ve
1e-07
12125.38121 8582.872058 0
0 0

0101101
*
Ve
1e-07
12125.38121 8582.872058 100
0 0

0101101
*
Ed
 1e-07 1 1 0
1  59 0 0 100
0

0101000
+59 3 -58 3 *
Ed
 1e-07 1 1 0
1  60 0 0 15.5
0

0101000
+59 9 -66 9 *
Ed
 1e-07 1 1 0
1  61 0 0 15.5
0

0101000
+58 13 -65 13 *
Wi

0101100
+57 0 -64 0 -56 7 +55 11 *
Fa
0  1e-07 21 0

0111000
+54 0 *
Ve
1e-07
12124.88121 8582.372058 0
0 0

0101101
*
Ve
1e-07
12124.88121 8582.372058 100
0 0

0101101
*
Ed
 1e-07 1 1 0
1  62 0 0 100
0

0101000
+52 3 -51 3 *
Ed
 1e-07 1 1 0
1  63 0 0 0.707106781186548
0

0101000
+52 9 -59 9 *
Ed
 1e-07 1 1 0
1  64 0 0 0.707106781186548
0

0101000
+51 13 -58 13 *
Wi

0101100
+50 0 -57 0 -49 7 +48 11 *
Fa
0  1e-07 22 0

0111000
+47 0 *
Ve
1e-07
12122.38121 8582.372058 0
0 0

0101101
*
Ve
1e-07
12122.38121 8582.372058 100
0 0

0101101
*
Ed
 1e-07 1 1 0
1  65 0 0 100
0

0101000
+45 3 -44 3 *
Ed
 1e-07 1 1 0
1  66 0 0 2.5
0

0101000
+45 9 -52 9 *
Ed
 1e-07 1 1 0
1  67 0 0 2.5
0

0101000
+44 13 -51 13 *
Wi

0101100
+43 0 -50 0 -42 7 +41 11 *
Fa
0  1e-07 23 0

0111000
+40 0 *
Ve
1e-07
12122.38121 8573.972058 0
0 0

0101101
*
Ve
1e-07
12122.38121 8573.972058 100
0 0

0101101
*
Ed
 1e-07 1 1 0
1  68 0 0 100
0

0101000
+38 3 -37 3 *
Ed
 1e-07 1 1 0
1  69 0 0 8.40000000000146
0

0101000
+38 9 -45 9 *
Ed
 1e-07 1 1 0
1  70 0 0 8.40000000000146
0

0101000
+37 13 -44 13 *
Wi

0101100
+36 0 -43 0 -35 7 +34 11 *
Fa
0  1e-07 24 0

0111000
+33 0 *
Ve
1e-07
12124.88121 8573.972058 0
0 0

0101101
*
Ve
1e-07
12124.88121 8573.972058 100
0 0

0101101
*
Ed
 1e-07 1 1 0
1  71 0 0 100
0

0101000
+31 3 -30 3 *
Ed
 1e-07 1 1 0
1  72 0 0 2.5
0

0101000
+31 9 -38 9 *
Ed
 1e-07 1 1 0
1  73 0 0 2.5
0

0101000
+30 13 -37 13 *
Wi

0101100
+29 0 -36 0 -28 7 +27 11 *
Fa
0  1e-07 25 0

0111000
+26 0 *
Ve
1e-07
12125.38121 8573.472058 0
0 0

0101101
*
Ve
1e-07
12125.38121 8573.472058 100
0 0

0101101
*
Ed
 1e-07 1 1 0
1  74 0 0 100
0

0101000
+24 3 -23 3 *
Ed
 1e-07 1 1 0
1  75 0 0 0.707106781186548
0

0101000
+24 9 -31 9 *
Ed
 1e-07 1 1 0
1  76 0 0 0.707106781186548
0

0101000
+23 13 -30 13 *
Wi

0101100
+22 0 -29 0 -21 7 +20 11 *
Fa
0  1e-07 26 0

0111000
+19 0 *
Ve
1e-07
12125.38121 8544.860825 0
0 0

0101101
*
Ve
1e-07
12125.38121 8544.860825 100
0 0

0101101
*
Ed
 1e-07 1 1 0
1  77 0 0 100
0

0101000
+17 3 -16 3 *
Ed
 1e-07 1 1 0
1  78 0 0 28.6112329999996
0

0101000
+17 9 -24 9 *
Ed
 1e-07 1 1 0
1  79 0 0 28.6112329999996
0

0101000
+16 13 -23 13 *
Wi

0101100
+15 0 -22 0 -14 7 +13 11 *
Fa
0  1e-07 27 0

0111000
+12 0 *
Ed
 1e-07 1 1 0
1  80 0 0 49.3070192073021
0

0101000
+195 9 -17 9 *
Ed
 1e-07 1 1 0
1  81 0 0 49.3070192073021
0

0101000
+194 13 -16 13 *
Wi

0101100
+193 0 -15 0 -10 7 +9 11 *
Fa
0  1e-07 2 0

0111000
+8 0 *
Wi

0101100
+189 0 -182 0 -175 0 -168 0 -161 0 -154 0 -147 0 -140 0 -133 0 -126 0 
-119 0 -112 0 -105 0 +98 0 -91 0 -84 0 -77 0 -70 0 -63 0 -56 0 
-49 0 -42 0 -35 0 -28 0 -21 0 -14 0 -10 0 *
Fa
0  1e-07 28 0

0111000
-6 15 *
Wi

0101100
+188 0 -181 0 -174 0 -167 0 -160 0 -153 0 -146 0 -139 0 -132 0 -125 0 
-118 0 -111 0 -104 0 +97 0 -90 0 -83 0 -76 0 -69 0 -62 0 -55 0 
-48 0 -41 0 -34 0 -27 0 -20 0 -13 0 -9 0 *
Fa
0  1e-07 29 0

0111000
-4 15 *
Sh

0101100
-186 0 +179 0 +172 0 +165 0 +158 0 +151 0 +144 0 +137 0 +130 0 +123 0 
+116 0 +109 0 +102 0 -95 0 +88 0 +81 0 +74 0 +67 0 +60 0 +53 0 
+46 0 +39 0 +32 0 +25 0 +18 0 +11 0 +7 0 +5 14 -3 16 *
So

1100000
-2 0 *

+1 1 